<svg width="512" height="512" viewBox="0 0 512 512" fill="none" xmlns="http://www.w3.org/2000/svg">
<path d="M116.272 330.672C116.272 338.026 119.193 345.079 124.393 350.279C129.593 355.479 136.646 358.4 144 358.4H368C375.354 358.4 382.407 355.479 387.607 350.279C392.807 345.079 395.728 338.026 395.728 330.672V228.272H116.272V330.672ZM162.672 283.728H200C207.498 283.728 214.689 286.707 219.991 292.009C225.293 297.311 228.272 304.502 228.272 312C228.272 319.499 225.293 326.69 219.991 331.992C214.689 337.294 207.498 340.272 200 340.272H162.672C155.174 340.272 147.983 337.294 142.681 331.992C137.379 326.69 134.4 319.499 134.4 312C134.4 304.502 137.379 297.311 142.681 292.009C147.983 286.707 155.174 283.728 162.672 283.728Z" fill="white" fill-opacity="0.08"/>
<path d="M368 153.601H144C140.359 153.601 136.753 154.318 133.389 155.711C130.025 157.105 126.968 159.147 124.393 161.722C121.819 164.297 119.776 167.353 118.383 170.718C116.989 174.082 116.272 177.687 116.272 181.329V209.073H395.728V181.329C395.728 177.687 395.011 174.082 393.617 170.718C392.224 167.353 390.181 164.297 387.607 161.722C385.032 159.147 381.975 157.105 378.611 155.711C375.247 154.318 371.641 153.601 368 153.601Z" fill="white" fill-opacity="0.08"/>
<path d="M162.672 321.073H200C202.406 321.073 204.714 320.117 206.415 318.416C208.116 316.714 209.072 314.407 209.072 312.001C209.072 309.595 208.116 307.287 206.415 305.586C204.714 303.884 202.406 302.929 200 302.929H162.672C160.266 302.929 157.959 303.884 156.257 305.586C154.556 307.287 153.6 309.595 153.6 312.001C153.6 314.407 154.556 316.714 156.257 318.416C157.959 320.117 160.266 321.073 162.672 321.073Z" fill="white" fill-opacity="0.08"/>
<path d="M444.16 41.6006H67.8401C60.8821 41.6048 54.2103 44.3708 49.2903 49.2908C44.3703 54.2108 41.6043 60.8826 41.6001 67.8406V444.161C41.6043 451.119 44.3703 457.79 49.2903 462.71C54.2103 467.63 60.8821 470.396 67.8401 470.401H444.16C451.118 470.396 457.79 467.63 462.71 462.71C467.63 457.79 470.396 451.119 470.4 444.161V67.8406C470.396 60.8826 467.63 54.2108 462.71 49.2908C457.79 44.3708 451.118 41.6048 444.16 41.6006ZM414.928 330.673C414.928 343.119 409.984 355.055 401.183 363.856C392.382 372.656 380.446 377.601 368 377.601H144C131.554 377.601 119.618 372.656 110.817 363.856C102.016 355.055 97.0721 343.119 97.0721 330.673V181.329C97.0721 168.883 102.016 156.946 110.817 148.145C119.618 139.345 131.554 134.401 144 134.401H368C380.446 134.401 392.382 139.345 401.183 148.145C409.984 156.946 414.928 168.883 414.928 181.329V330.673Z" fill="white" fill-opacity="0.08"/>
<path d="M444.16 22.4004H67.8399C55.7911 22.4089 44.2381 27.199 35.7183 35.7188C27.1985 44.2386 22.4084 55.7915 22.3999 67.8404V444.16C22.4084 456.209 27.1985 467.762 35.7183 476.282C44.2381 484.802 55.7911 489.592 67.8399 489.6H444.16C456.209 489.592 467.762 484.802 476.281 476.282C484.801 467.762 489.591 456.209 489.6 444.16V67.8404C489.591 55.7915 484.801 44.2386 476.281 35.7188C467.762 27.199 456.209 22.4089 444.16 22.4004ZM470.4 444.16C470.396 451.118 467.63 457.79 462.71 462.71C457.79 467.63 451.118 470.396 444.16 470.4H67.8399C60.8819 470.396 54.2101 467.63 49.2901 462.71C44.3701 457.79 41.6041 451.118 41.5999 444.16V67.8404C41.6041 60.8824 44.3701 54.2106 49.2901 49.2906C54.2101 44.3706 60.8819 41.6046 67.8399 41.6004H444.16C451.118 41.6046 457.79 44.3706 462.71 49.2906C467.63 54.2106 470.396 60.8824 470.4 67.8404V444.16Z" fill="#FF7B15"/>
<path d="M368 134.4H144C131.554 134.4 119.617 139.345 110.817 148.145C102.016 156.946 97.0718 168.882 97.0718 181.328V330.672C97.0718 343.118 102.016 355.055 110.817 363.855C119.617 372.656 131.554 377.6 144 377.6H368C380.446 377.6 392.382 372.656 401.183 363.855C409.984 355.055 414.928 343.118 414.928 330.672V181.328C414.928 168.882 409.984 156.946 401.183 148.145C392.382 139.345 380.446 134.4 368 134.4ZM395.728 330.672C395.728 338.026 392.806 345.079 387.606 350.279C382.406 355.479 375.354 358.4 368 358.4H144C136.646 358.4 129.593 355.479 124.393 350.279C119.193 345.079 116.272 338.026 116.272 330.672V228.272H395.728V330.672ZM395.728 209.072H116.272V181.328C116.272 173.974 119.193 166.922 124.393 161.722C129.593 156.522 136.646 153.6 144 153.6H368C375.354 153.6 382.406 156.522 387.606 161.722C392.806 166.922 395.728 173.974 395.728 181.328V209.072Z" fill="#FF7B15"/>
<path d="M162.672 340.273H200C207.498 340.273 214.689 337.294 219.991 331.992C225.293 326.69 228.272 319.499 228.272 312.001C228.272 304.502 225.293 297.311 219.991 292.009C214.689 286.707 207.498 283.729 200 283.729H162.672C155.174 283.729 147.983 286.707 142.681 292.009C137.379 297.311 134.4 304.502 134.4 312.001C134.4 319.499 137.379 326.69 142.681 331.992C147.983 337.294 155.174 340.273 162.672 340.273ZM162.672 302.929H200C202.406 302.929 204.713 303.884 206.415 305.586C208.116 307.287 209.072 309.594 209.072 312.001C209.072 314.407 208.116 316.714 206.415 318.415C204.713 320.117 202.406 321.073 200 321.073H162.672C160.266 321.073 157.958 320.117 156.257 318.415C154.556 316.714 153.6 314.407 153.6 312.001C153.6 309.594 154.556 307.287 156.257 305.586C157.958 303.884 160.266 302.929 162.672 302.929Z" fill="#FF7B15"/>
</svg>
