<svg width="512" height="512" viewBox="0 0 512 512" fill="none" xmlns="http://www.w3.org/2000/svg">
<path d="M301.76 352.48C312.691 352.48 321.552 343.619 321.552 332.688C321.552 321.757 312.691 312.896 301.76 312.896C290.829 312.896 281.968 321.757 281.968 332.688C281.968 343.619 290.829 352.48 301.76 352.48Z" fill="white" fill-opacity="0.08"/>
<path d="M274.832 186.432C274.831 182.845 275.082 179.263 275.584 175.712H223.184V313.312H267.984C271.401 307.358 276.328 302.412 282.269 298.972C288.209 295.532 294.952 293.721 301.816 293.721C308.68 293.721 315.423 295.532 321.364 298.972C327.304 302.412 332.231 307.358 335.648 313.312H360.8V261.088C350.117 262.587 339.236 261.776 328.893 258.712C318.549 255.648 308.983 250.401 300.839 243.326C292.696 236.25 286.165 227.51 281.687 217.695C277.209 207.881 274.888 197.22 274.88 186.432H274.832Z" fill="white" fill-opacity="0.08"/>
<path d="M105.6 285.952V313.28H130.768C134.183 307.326 139.108 302.379 145.048 298.939C150.987 295.499 157.729 293.687 164.592 293.687C171.456 293.687 178.198 295.499 184.137 298.939C190.076 302.379 195.001 307.326 198.416 313.28H203.984V214.912H141.12L105.6 285.952Z" fill="white" fill-opacity="0.08"/>
<path d="M164.592 352.48C175.523 352.48 184.384 343.619 184.384 332.688C184.384 321.757 175.523 312.896 164.592 312.896C153.661 312.896 144.8 321.757 144.8 332.688C144.8 343.619 153.661 352.48 164.592 352.48Z" fill="white" fill-opacity="0.08"/>
<path d="M350.208 130.24C339.094 130.24 328.23 133.536 318.99 139.71C309.749 145.885 302.547 154.661 298.294 164.928C294.04 175.196 292.928 186.495 295.096 197.395C297.264 208.295 302.616 218.307 310.474 226.166C318.333 234.025 328.345 239.376 339.246 241.545C350.146 243.713 361.444 242.6 371.712 238.347C381.98 234.094 390.756 226.892 396.93 217.651C403.105 208.41 406.4 197.546 406.4 186.432C406.396 171.53 400.474 157.24 389.937 146.703C379.4 136.166 365.11 130.244 350.208 130.24ZM381.584 220.8C380.649 221.65 379.556 222.307 378.366 222.733C377.177 223.16 375.915 223.347 374.653 223.285C373.391 223.222 372.153 222.911 371.012 222.37C369.87 221.828 368.847 221.066 368 220.128L343.12 192.928C341.516 191.181 340.615 188.901 340.592 186.528V148.32C340.592 145.774 341.604 143.332 343.404 141.532C345.204 139.732 347.646 138.72 350.192 138.72C352.738 138.72 355.18 139.732 356.98 141.532C358.781 143.332 359.792 145.774 359.792 148.32V182.704L382.192 207.168C383.053 208.1 383.721 209.194 384.157 210.385C384.593 211.577 384.788 212.843 384.732 214.111C384.675 215.379 384.368 216.623 383.828 217.771C383.287 218.919 382.525 219.949 381.584 220.8Z" fill="white" fill-opacity="0.08"/>
<path d="M444.16 41.6001H67.8401C60.8821 41.6043 54.2103 44.3703 49.2903 49.2903C44.3703 54.2103 41.6043 60.8821 41.6001 67.8401V444.16C41.6043 451.118 44.3703 457.79 49.2903 462.71C54.2103 467.63 60.8821 470.396 67.8401 470.4H444.16C451.118 470.396 457.79 467.63 462.71 462.71C467.63 457.79 470.396 451.118 470.4 444.16V67.8401C470.396 60.8821 467.63 54.2103 462.71 49.2903C457.79 44.3703 451.118 41.6043 444.16 41.6001ZM379.952 255.712V322.912C379.952 324.173 379.704 325.421 379.221 326.586C378.739 327.751 378.032 328.809 377.14 329.7C376.249 330.592 375.191 331.299 374.026 331.781C372.861 332.264 371.613 332.512 370.352 332.512H340.8V332.704C340.593 342.911 336.394 352.63 329.102 359.775C321.811 366.92 312.009 370.922 301.8 370.922C291.591 370.922 281.789 366.92 274.498 359.775C267.207 352.63 263.007 342.911 262.8 332.704V332.48H203.6V332.672C203.6 337.793 202.592 342.863 200.632 347.594C198.672 352.324 195.8 356.623 192.18 360.244C188.559 363.864 184.26 366.736 179.53 368.696C174.799 370.656 169.729 371.664 164.608 371.664C159.488 371.664 154.417 370.656 149.687 368.696C144.956 366.736 140.657 363.864 137.037 360.244C133.416 356.623 130.544 352.324 128.584 347.594C126.625 342.863 125.616 337.793 125.616 332.672V332.48H96.0001C94.7394 332.48 93.4911 332.232 92.3263 331.749C91.1616 331.267 90.1033 330.56 89.2119 329.668C88.3204 328.777 87.6133 327.719 87.1309 326.554C86.6484 325.389 86.4001 324.141 86.4001 322.88V283.68C86.4038 282.192 86.7487 280.726 87.4081 279.392L126.608 200.992C127.405 199.396 128.631 198.053 130.149 197.115C131.667 196.176 133.416 195.68 135.2 195.68H204V166.08C204 163.534 205.012 161.092 206.812 159.292C208.612 157.492 211.054 156.48 213.6 156.48H281.024C285.909 145.183 293.486 135.254 303.092 127.56C312.699 119.865 324.043 114.64 336.134 112.34C348.226 110.04 360.696 110.735 372.457 114.365C384.217 117.994 394.91 124.448 403.602 133.163C412.294 141.877 418.72 152.587 422.32 164.357C425.919 176.127 426.582 188.599 424.25 200.684C421.919 212.769 416.665 224.1 408.945 233.687C401.226 243.273 391.278 250.824 379.968 255.68L379.952 255.712Z" fill="white" fill-opacity="0.08"/>
<path d="M444.16 22.3999H67.8399C55.7911 22.4084 44.2381 27.1985 35.7183 35.7183C27.1985 44.2381 22.4084 55.7911 22.3999 67.8399V444.16C22.4084 456.209 27.1985 467.762 35.7183 476.281C44.2381 484.801 55.7911 489.591 67.8399 489.6H444.16C456.209 489.591 467.762 484.801 476.281 476.281C484.801 467.762 489.591 456.209 489.6 444.16V67.8399C489.591 55.7911 484.801 44.2381 476.281 35.7183C467.762 27.1985 456.209 22.4084 444.16 22.3999ZM470.4 444.16C470.396 451.118 467.63 457.79 462.71 462.71C457.79 467.63 451.118 470.396 444.16 470.4H67.8399C60.8819 470.396 54.2101 467.63 49.2901 462.71C44.3701 457.79 41.6041 451.118 41.5999 444.16V67.8399C41.6041 60.8819 44.3701 54.2101 49.2901 49.2901C54.2101 44.3701 60.8819 41.6041 67.8399 41.5999H444.16C451.118 41.6041 457.79 44.3701 462.71 49.2901C467.63 54.2101 470.396 60.8819 470.4 67.8399V444.16Z" fill="#FF7B15"/>
<path d="M350.208 111.04C335.496 111.046 321.107 115.354 308.812 123.433C296.517 131.513 286.852 143.011 281.008 156.512H213.584C211.038 156.512 208.596 157.523 206.796 159.324C204.995 161.124 203.984 163.566 203.984 166.112V195.712H135.2C133.416 195.712 131.666 196.208 130.149 197.147C128.631 198.085 127.405 199.428 126.608 201.024L87.4079 279.424C86.7485 280.758 86.4036 282.224 86.3999 283.712V322.912C86.3999 324.173 86.6482 325.421 87.1307 326.586C87.6131 327.751 88.3202 328.809 89.2117 329.7C90.1031 330.592 91.1614 331.299 92.3261 331.781C93.4909 332.264 94.7392 332.512 95.9999 332.512H125.6V332.704C125.6 343.045 129.708 352.963 137.02 360.276C144.333 367.588 154.251 371.696 164.592 371.696C174.933 371.696 184.851 367.588 192.163 360.276C199.476 352.963 203.584 343.045 203.584 332.704V332.48H262.784V332.672C262.991 342.879 267.19 352.598 274.482 359.743C281.773 366.888 291.575 370.89 301.784 370.89C311.993 370.89 321.795 366.888 329.086 359.743C336.377 352.598 340.577 342.879 340.784 332.672V332.48H370.368C371.629 332.48 372.877 332.232 374.042 331.749C375.206 331.267 376.265 330.56 377.156 329.668C378.048 328.777 378.755 327.719 379.237 326.554C379.72 325.389 379.968 324.141 379.968 322.88V255.68C395.903 248.82 408.984 236.675 417.006 221.292C425.028 205.909 427.499 188.231 424.003 171.238C420.506 154.246 411.257 138.979 397.813 128.012C384.37 117.046 367.557 111.052 350.208 111.04ZM164.608 352.48C160.693 352.48 156.867 351.319 153.612 349.144C150.357 346.97 147.82 343.879 146.322 340.262C144.824 336.646 144.433 332.666 145.196 328.827C145.96 324.988 147.845 321.461 150.613 318.693C153.381 315.925 156.907 314.04 160.747 313.276C164.586 312.513 168.565 312.905 172.182 314.403C175.798 315.901 178.89 318.437 181.064 321.692C183.239 324.947 184.4 328.774 184.4 332.688C184.396 337.939 182.307 342.973 178.593 346.684C174.878 350.395 169.843 352.48 164.592 352.48H164.608ZM204 313.28H198.4C194.985 307.326 190.06 302.379 184.12 298.939C178.181 295.499 171.439 293.687 164.576 293.687C157.712 293.687 150.97 295.499 145.031 298.939C139.092 302.379 134.167 307.326 130.752 313.28H105.6V285.952L141.12 214.896H203.984L204 313.28ZM301.776 352.48C297.863 352.474 294.039 351.308 290.789 349.129C287.538 346.95 285.006 343.857 283.513 340.24C282.02 336.623 281.633 332.644 282.4 328.807C283.167 324.97 285.055 321.446 287.824 318.682C290.593 315.917 294.12 314.035 297.958 313.274C301.797 312.513 305.775 312.907 309.389 314.406C313.004 315.905 316.093 318.441 318.267 321.696C320.44 324.95 321.6 328.775 321.6 332.688C321.598 335.291 321.083 337.867 320.084 340.271C319.086 342.674 317.624 344.857 315.781 346.695C313.939 348.533 311.752 349.99 309.346 350.983C306.94 351.976 304.378 352.484 301.776 352.48ZM360.768 313.28H335.6C332.183 307.327 327.256 302.38 321.315 298.94C315.375 295.5 308.632 293.689 301.768 293.689C294.904 293.689 288.161 295.5 282.22 298.94C276.28 302.38 271.353 307.327 267.936 313.28H223.136V175.68H275.536C275.034 179.231 274.782 182.813 274.784 186.4C274.791 197.188 277.113 207.849 281.591 217.663C286.069 227.478 292.6 236.218 300.743 243.294C308.887 250.369 318.453 255.616 328.796 258.68C339.14 261.745 350.021 262.555 360.704 261.056L360.768 313.28ZM350.224 242.608C339.109 242.611 328.242 239.318 318.999 233.145C309.756 226.971 302.551 218.196 298.296 207.927C294.041 197.659 292.927 186.359 295.095 175.457C297.263 164.556 302.615 154.542 310.474 146.682C318.334 138.823 328.348 133.471 339.249 131.303C350.151 129.135 361.451 130.249 371.719 134.504C381.987 138.759 390.763 145.964 396.937 155.207C403.11 164.451 406.403 175.317 406.4 186.432C406.391 201.331 400.468 215.617 389.931 226.151C379.395 236.684 365.123 242.604 350.224 242.608Z" fill="#FF7B15"/>
<path d="M359.808 182.704V148.32C359.808 145.774 358.796 143.332 356.996 141.531C355.196 139.731 352.754 138.72 350.208 138.72C347.662 138.72 345.22 139.731 343.42 141.531C341.619 143.332 340.608 145.774 340.608 148.32V186.416C340.631 188.788 341.531 191.068 343.136 192.816L368 220.128C369.719 222.008 372.113 223.128 374.658 223.242C377.202 223.356 379.688 222.454 381.568 220.736C383.448 219.017 384.568 216.622 384.682 214.078C384.796 211.533 383.895 209.048 382.176 207.168L359.808 182.704Z" fill="#FF7B15"/>
</svg>
