<svg width="512" height="512" viewBox="0 0 512 512" fill="none" xmlns="http://www.w3.org/2000/svg">
<path d="M296.656 232.416L267.088 261.984H296.656V232.416Z" fill="white" fill-opacity="0.08"/>
<path d="M444.16 41.6001H67.8401C60.8821 41.6043 54.2103 44.3703 49.2903 49.2903C44.3703 54.2103 41.6043 60.8821 41.6001 67.8401V444.16C41.6043 451.118 44.3703 457.79 49.2903 462.71C54.2103 467.63 60.8821 470.396 67.8401 470.4H444.16C451.118 470.396 457.79 467.63 462.71 462.71C467.63 457.79 470.396 451.118 470.4 444.16V67.8401C470.396 60.8821 467.63 54.2103 462.71 49.2903C457.79 44.3703 451.118 41.6043 444.16 41.6001ZM424.32 289.52L388.896 318.4C387.717 319.364 386.326 320.034 384.838 320.354C383.349 320.675 381.806 320.636 380.335 320.242C378.864 319.848 377.508 319.11 376.379 318.089C375.249 317.068 374.379 315.792 373.84 314.368L357.632 271.568C357.158 270.384 356.925 269.117 356.947 267.841C356.968 266.566 357.243 265.308 357.757 264.14C358.27 262.972 359.011 261.918 359.936 261.04C360.861 260.162 361.952 259.477 363.145 259.025C364.338 258.573 365.609 258.363 366.883 258.408C368.158 258.453 369.411 258.752 370.569 259.286C371.728 259.821 372.768 260.581 373.629 261.523C374.49 262.464 375.154 263.567 375.584 264.768L381.472 280.336C386.488 252.238 382.734 223.277 370.72 197.387C358.706 171.496 339.015 149.93 314.32 135.619C289.625 121.308 261.123 114.944 232.686 117.393C204.249 119.841 177.255 130.983 155.37 149.304C133.484 167.626 117.768 192.24 110.357 219.803C102.945 247.366 104.197 276.543 113.942 303.37C123.687 330.197 141.453 353.375 164.827 369.755C188.201 386.135 216.05 394.924 244.592 394.928C278.446 394.973 311.142 382.609 336.496 360.176C338.406 358.491 340.906 357.634 343.448 357.793C345.989 357.952 348.363 359.115 350.048 361.024C351.733 362.934 352.59 365.434 352.431 367.976C352.272 370.517 351.11 372.891 349.2 374.576C321.2 399.191 285.387 413.095 248.113 413.821C210.838 414.547 174.511 402.049 145.573 378.543C116.635 355.038 96.957 322.043 90.028 285.411C83.099 248.779 89.3671 210.877 107.721 178.426C126.074 145.975 155.327 121.073 190.292 108.135C225.257 95.1971 263.673 95.06 298.729 107.748C333.786 120.436 363.215 145.129 381.8 177.448C400.385 209.767 406.923 247.624 400.256 284.304L412.144 274.576C413.12 273.778 414.244 273.179 415.451 272.815C416.658 272.451 417.925 272.328 419.18 272.454C420.435 272.579 421.652 272.951 422.764 273.547C423.875 274.143 424.858 274.952 425.656 275.928C426.455 276.904 427.053 278.028 427.417 279.235C427.781 280.442 427.904 281.709 427.779 282.964C427.653 284.219 427.282 285.436 426.685 286.548C426.089 287.659 425.28 288.642 424.304 289.44L424.32 289.52ZM243.904 281.184C242.007 281.182 240.152 280.618 238.575 279.564C236.998 278.509 235.769 277.01 235.043 275.257C234.317 273.504 234.127 271.575 234.497 269.714C234.866 267.852 235.779 266.143 237.12 264.8L299.52 202.4C300.864 201.058 302.575 200.145 304.437 199.776C306.3 199.407 308.23 199.598 309.984 200.326C311.738 201.054 313.236 202.285 314.29 203.865C315.344 205.445 315.906 207.301 315.904 209.2V262H321.888C324.434 262 326.876 263.012 328.676 264.812C330.477 266.612 331.488 269.054 331.488 271.6C331.488 274.146 330.477 276.588 328.676 278.388C326.876 280.189 324.434 281.2 321.888 281.2H315.904V302.768C315.904 305.314 314.893 307.756 313.092 309.556C311.292 311.357 308.85 312.368 306.304 312.368C303.758 312.368 301.316 311.357 299.516 309.556C297.716 307.756 296.704 305.314 296.704 302.768V281.184H243.904ZM216.912 224.976C213.368 221.406 208.671 219.213 203.658 218.788C198.646 218.363 193.646 219.734 189.552 222.656C186.702 224.702 184.411 227.431 182.89 230.593C181.369 233.755 180.667 237.248 180.848 240.752C180.848 243.298 179.837 245.74 178.036 247.54C176.236 249.341 173.794 250.352 171.248 250.352C168.702 250.352 166.26 249.341 164.46 247.54C162.66 245.74 161.648 243.298 161.648 240.752C161.407 234.112 162.847 227.518 165.834 221.583C168.822 215.647 173.259 210.563 178.736 206.8C186.75 201.316 196.456 198.867 206.112 199.894C215.768 200.92 224.742 205.354 231.424 212.4C237.598 219.724 240.856 229.066 240.576 238.64C238.902 251.098 232.679 262.496 223.104 270.64C214.588 278.907 205.404 286.457 195.648 293.216H230.976C233.522 293.216 235.964 294.228 237.764 296.028C239.565 297.828 240.576 300.27 240.576 302.816C240.576 305.362 239.565 307.804 237.764 309.604C235.964 311.405 233.522 312.416 230.976 312.416H162.976C160.85 312.431 158.78 311.74 157.09 310.451C155.399 309.163 154.184 307.35 153.635 305.296C153.086 303.243 153.234 301.065 154.056 299.105C154.877 297.144 156.327 295.512 158.176 294.464C176.594 283.977 193.77 271.445 209.376 257.104C212.845 253.729 215.92 249.971 218.544 245.904C220.08 243.779 221.019 241.282 221.264 238.672C221.533 233.729 219.985 228.858 216.912 224.976Z" fill="white" fill-opacity="0.08"/>
<path d="M444.16 22.3999H67.8399C55.7911 22.4084 44.2381 27.1985 35.7183 35.7183C27.1985 44.2381 22.4084 55.7911 22.3999 67.8399V444.16C22.4084 456.209 27.1985 467.762 35.7183 476.281C44.2381 484.801 55.7911 489.591 67.8399 489.6H444.16C456.209 489.591 467.762 484.801 476.281 476.281C484.801 467.762 489.591 456.209 489.6 444.16V67.8399C489.591 55.7911 484.801 44.2381 476.281 35.7183C467.762 27.1985 456.209 22.4084 444.16 22.3999ZM470.4 444.16C470.396 451.118 467.63 457.79 462.71 462.71C457.79 467.63 451.118 470.396 444.16 470.4H67.8399C60.8819 470.396 54.2101 467.63 49.2901 462.71C44.3701 457.79 41.6041 451.118 41.5999 444.16V67.8399C41.6041 60.8819 44.3701 54.2101 49.2901 49.2901C54.2101 44.3701 60.8819 41.6041 67.8399 41.5999H444.16C451.118 41.6041 457.79 44.3701 462.71 49.2901C467.63 54.2101 470.396 60.8819 470.4 67.8399V444.16Z" fill="#FF7B15"/>
<path d="M412.176 274.656L400.288 284.384C407.037 247.545 400.516 209.506 381.88 177.02C363.245 144.534 333.701 119.701 298.494 106.93C263.287 94.1596 224.693 94.277 189.564 107.262C154.435 120.246 125.043 145.258 106.606 177.857C88.1682 210.456 81.8779 248.534 88.8515 285.331C95.8251 322.128 115.611 355.264 144.698 378.857C173.785 402.449 210.29 414.973 247.734 414.204C285.178 413.435 321.138 399.423 349.232 374.656C351.141 372.971 352.303 370.597 352.462 368.055C352.622 365.514 351.764 363.013 350.08 361.104C348.395 359.194 346.021 358.032 343.479 357.873C340.938 357.714 338.437 358.571 336.528 360.256C312.684 381.263 282.362 393.464 250.614 394.826C218.866 396.189 187.61 386.63 162.055 367.743C136.5 348.856 118.189 321.782 110.173 291.033C102.158 260.283 104.923 227.715 118.007 198.756C131.09 169.798 153.703 146.198 182.076 131.889C210.45 117.58 242.87 113.427 273.934 120.121C304.998 126.815 332.829 143.953 352.79 168.678C372.752 193.404 383.637 224.223 383.632 256C383.633 264.186 382.916 272.356 381.488 280.416L375.6 264.848C375.17 263.647 374.505 262.543 373.644 261.602C372.783 260.661 371.743 259.901 370.585 259.366C369.427 258.831 368.174 258.533 366.899 258.488C365.624 258.443 364.353 258.653 363.16 259.105C361.967 259.556 360.877 260.241 359.952 261.12C359.026 261.998 358.286 263.052 357.772 264.22C357.259 265.387 356.984 266.646 356.962 267.921C356.941 269.197 357.174 270.463 357.648 271.648L373.856 314.448C374.395 315.872 375.265 317.147 376.394 318.169C377.524 319.19 378.88 319.928 380.351 320.322C381.821 320.716 383.365 320.754 384.853 320.434C386.342 320.114 387.733 319.444 388.912 318.48L424.352 289.52C425.328 288.721 426.137 287.739 426.733 286.627C427.329 285.516 427.701 284.299 427.826 283.044C427.952 281.789 427.829 280.522 427.465 279.315C427.101 278.107 426.502 276.984 425.704 276.008C424.905 275.032 423.922 274.223 422.811 273.627C421.7 273.03 420.482 272.659 419.228 272.533C417.973 272.408 416.706 272.531 415.499 272.895C414.291 273.259 413.152 273.857 412.176 274.656Z" fill="#FF7B15"/>
<path d="M209.456 257.04C193.849 271.38 176.674 283.913 158.256 294.4C156.406 295.448 154.957 297.08 154.135 299.04C153.313 301 153.165 303.178 153.714 305.232C154.264 307.285 155.479 309.098 157.169 310.387C158.86 311.676 160.93 312.367 163.056 312.352H231.024C232.284 312.352 233.533 312.103 234.698 311.621C235.862 311.139 236.921 310.431 237.812 309.54C238.703 308.648 239.411 307.59 239.893 306.425C240.375 305.261 240.624 304.012 240.624 302.752C240.624 301.491 240.375 300.243 239.893 299.078C239.411 297.913 238.703 296.855 237.812 295.963C236.921 295.072 235.862 294.365 234.698 293.882C233.533 293.4 232.284 293.152 231.024 293.152H195.616C205.372 286.393 214.555 278.842 223.072 270.576C232.646 262.432 238.87 251.033 240.544 238.576C240.824 229.001 237.566 219.659 231.392 212.336C224.71 205.29 215.736 200.856 206.079 199.829C196.423 198.803 186.717 201.252 178.704 206.736C173.215 210.502 168.768 215.597 165.777 221.544C162.787 227.492 161.35 234.099 161.6 240.752C161.6 243.298 162.611 245.74 164.412 247.54C166.212 249.34 168.654 250.352 171.2 250.352C173.746 250.352 176.188 249.34 177.988 247.54C179.788 245.74 180.8 243.298 180.8 240.752C180.619 237.248 181.321 233.754 182.842 230.593C184.363 227.431 186.653 224.702 189.504 222.656C193.598 219.734 198.598 218.363 203.61 218.788C208.622 219.213 213.32 221.406 216.864 224.976C219.964 228.835 221.546 233.695 221.312 238.64C221.067 241.25 220.128 243.747 218.592 245.872C215.976 249.926 212.911 253.673 209.456 257.04Z" fill="#FF7B15"/>
<path d="M306.256 312.352C307.516 312.352 308.765 312.103 309.929 311.621C311.094 311.139 312.153 310.431 313.044 309.54C313.935 308.649 314.643 307.59 315.125 306.425C315.607 305.261 315.856 304.012 315.856 302.752V281.184H321.84C324.386 281.184 326.828 280.172 328.628 278.372C330.428 276.572 331.44 274.13 331.44 271.584C331.44 269.038 330.428 266.596 328.628 264.796C326.828 262.995 324.386 261.984 321.84 261.984H315.856V209.184C315.857 207.285 315.296 205.428 314.242 203.849C313.188 202.269 311.69 201.037 309.936 200.31C308.182 199.582 306.252 199.39 304.389 199.759C302.527 200.129 300.815 201.042 299.472 202.384L237.072 264.784C235.731 266.126 234.818 267.836 234.448 269.697C234.078 271.558 234.269 273.487 234.994 275.24C235.72 276.993 236.95 278.492 238.527 279.547C240.104 280.602 241.958 281.166 243.856 281.168H296.656V302.736C296.654 303.998 296.9 305.248 297.382 306.414C297.863 307.581 298.57 308.641 299.462 309.534C300.353 310.427 301.413 311.136 302.578 311.619C303.744 312.103 304.994 312.352 306.256 312.352ZM267.088 261.984L296.656 232.416V261.984H267.088Z" fill="#FF7B15"/>
</svg>
