<?xml version="1.0" encoding="UTF-8"?>
<svg width="286px" height="307px" viewBox="0 0 286 307" version="1.1" xmlns="http://www.w3.org/2000/svg" xmlns:xlink="http://www.w3.org/1999/xlink">
    <!-- Generator: Sketch 58 (84663) - https://sketch.com -->
    <title>icon2 copy 6</title>
    <desc>Created with Sketch.</desc>
    <defs>
        <path d="M136.891514,6.78318171 L221.144689,54.8430521 C228.631388,59.1136302 233.253175,67.0708429 233.253175,75.6899201 L233.253175,171.31008 C233.253175,179.929157 228.631388,187.88637 221.144689,192.156948 L136.891514,240.216818 C129.521224,244.420994 120.478776,244.420994 113.108486,240.216818 L28.855311,192.156948 C21.3686125,187.88637 16.7468245,179.929157 16.7468245,171.31008 L16.7468245,75.6899201 C16.7468245,67.0708429 21.3686125,59.1136302 28.855311,54.8430521 L113.108486,6.78318171 C120.478776,2.57900573 129.521224,2.57900573 136.891514,6.78318171 Z" id="path-1"></path>
        <filter x="-13.3%" y="-18.4%" width="126.6%" height="137.5%" filterUnits="objectBoundingBox" id="filter-2">
            <feMorphology radius="14.5" operator="dilate" in="SourceAlpha" result="shadowSpreadOuter1"></feMorphology>
            <feOffset dx="0" dy="1" in="shadowSpreadOuter1" result="shadowOffsetOuter1"></feOffset>
            <feGaussianBlur stdDeviation="10" in="shadowOffsetOuter1" result="shadowBlurOuter1"></feGaussianBlur>
            <feComposite in="shadowBlurOuter1" in2="SourceAlpha" operator="out" result="shadowBlurOuter1"></feComposite>
            <feColorMatrix values="0 0 0 0 0.35328424   0 0 0 0 0.215828061   0 0 0 0 0.200043112  0 0 0 0.2 0" type="matrix" in="shadowBlurOuter1"></feColorMatrix>
        </filter>
    </defs>
    <g id="Page-1" stroke="none" stroke-width="1" fill="none" fill-rule="evenodd">
        <g id="icon2-copy-6" transform="translate(18.000000, 29.000000)">
            <g id="ффффф" stroke-linejoin="round">
                <use fill="black" fill-opacity="1" filter="url(#filter-2)" xlink:href="#path-1"></use>
                <use stroke="#FFFFFF" stroke-width="24" fill="#F9F4F0" fill-rule="evenodd" xlink:href="#path-1"></use>
            </g>
            <g id="027-honey" transform="translate(60.000000, 64.000000)" fill-rule="nonzero">
                <path d="M111.948265,50.3225806 L112.244898,50.3225806 C115.451633,50.3225806 118.061224,47.7174194 118.061224,44.516129 C118.061224,41.3148387 115.451633,38.7096774 112.244898,38.7096774 L100.678163,38.7096774 L113.156122,10.4767742 C113.908367,8.77354839 113.997551,6.86709677 113.408163,5.10387097 C112.388367,2.0516129 109.538367,0 106.131939,0 C103.194694,0 100.517245,1.7283871 99.3132653,4.40129032 L83.8476531,38.7096774 L46.3265306,38.7096774 L34.6938776,38.7096774 C31.4871429,38.7096774 28.877551,41.3148387 28.877551,44.516129 C28.877551,47.7174194 31.4871429,50.3225806 34.6938776,50.3225806 L34.992449,50.3225806 C29.6588776,58.8116129 26.9387755,66.6135484 26.9387755,73.5483871 C26.9387755,80.3883871 28.4006122,86.943871 31.2544898,93.0696774 C30.7368367,93.4625806 30.2211224,93.8670968 29.7286735,94.3296774 C26.7681633,97.1148387 25,100.583226 25,103.606452 C25,105.421935 25.6281633,106.974194 26.8185714,108.092903 C28.0031633,109.209677 29.6142857,109.745806 31.4192857,109.745806 C33.4705102,109.745806 35.7660204,109.039355 37.9723469,107.723226 C39.474898,110.554839 41.8130612,112.258065 44.4168367,112.258065 C45.3047959,112.258065 46.1559184,112.050968 46.9566327,111.687097 C54.7679592,117.110323 63.8937755,120 73.4693878,120 C99.1252041,120 120,99.1606452 120,73.5483871 C120,66.5090323 117.345816,58.8793548 111.948265,50.3225806 Z M102.849592,5.99032258 C103.429286,4.70322581 104.716633,3.87096774 106.314184,3.87096774 C107.867143,3.87096774 109.237857,4.85806452 109.730306,6.32709677 C110.013367,7.17677419 109.968776,8.09419355 109.608163,8.91483871 L96.44,38.7096774 L88.9795918,38.7096774 L88.1013265,38.7096774 L102.849592,5.99032258 Z M34.6938776,46.4516129 C33.6236735,46.4516129 32.755102,45.5845161 32.755102,44.516129 C32.755102,43.4477419 33.6236735,42.5806452 34.6938776,42.5806452 L40.8669388,42.5806452 C40.6497959,43.1883871 40.5102041,43.8348387 40.5102041,44.516129 L40.5102041,46.4516129 L34.6938776,46.4516129 Z M38.4570408,102.538065 C35.0544898,105.743226 30.9113265,106.627742 29.4785714,105.27871 C29.0791837,104.90129 28.877551,104.34 28.877551,103.606452 C28.877551,102.079355 29.8004082,99.5806452 32.3867347,97.1458065 C34.7694898,94.9064516 37.5147959,93.7993548 39.4380612,93.7993548 C40.2639796,93.7993548 40.9367347,94.0006452 41.3671429,94.4051613 C41.7645918,94.7806452 41.9681633,95.343871 41.9681633,96.0774194 C41.9681633,98.0264516 40.6226531,100.5 38.4570408,102.538065 Z M40.182551,89.0322581 C40.182551,86.8974194 42.0806122,85.1612903 44.4168367,85.1612903 C46.7511224,85.1612903 48.6511224,86.8974194 48.6511224,89.0322581 C48.6511224,89.3748387 48.5987755,89.7077419 48.5057143,90.0290323 C47.0535714,90.176129 45.7429592,90.656129 44.7503061,91.5909677 C44.6126531,91.7187097 44.509898,91.8735484 44.3896939,92.0129032 C44.267551,91.8735484 44.1647959,91.7187097 44.0271429,91.5909677 C43.0480612,90.6696774 41.7607143,90.1896774 40.3318367,90.0348387 C40.234898,89.7116129 40.182551,89.3767742 40.182551,89.0322581 Z M44.4168367,108.387097 C43.1740816,108.387097 41.9293878,107.225806 41.1112245,105.361935 C41.1131633,105.36 41.115102,105.358065 41.1170408,105.358065 C42.4858163,104.070968 43.5870408,102.634839 44.3896939,101.165806 C45.1923469,102.634839 46.2916327,104.069032 47.6604082,105.358065 C47.6739796,105.369677 47.687551,105.379355 47.6991837,105.392903 C46.8829592,107.216129 45.6440816,108.387097 44.4168367,108.387097 Z M46.8073469,96.0793548 C46.8073469,95.3458065 47.0089796,94.7825806 47.4083673,94.4070968 C47.8387755,94.0025806 48.5115306,93.8012903 49.337449,93.8012903 C51.2607143,93.8012903 54.0060204,94.9064516 56.3887755,97.1477419 C58.975102,99.5806452 59.8979592,102.079355 59.8979592,103.606452 C59.8979592,104.34 59.6943878,104.90129 59.2969388,105.276774 C57.8603061,106.627742 53.7229592,105.743226 50.3184694,102.54 C48.1547959,100.501935 46.8073469,98.0283871 46.8073469,96.0793548 Z M73.4693878,116.129032 C65.0395918,116.129032 56.9859184,113.682581 50.019898,109.087742 C50.3204082,108.677419 50.5957143,108.232258 50.8496939,107.752258 C53.042449,109.050968 55.3205102,109.745806 57.3542857,109.745806 C59.1592857,109.745806 60.7704082,109.211613 61.955,108.092903 C63.1473469,106.976129 63.7755102,105.423871 63.7755102,103.606452 C63.7755102,100.583226 62.0073469,97.1148387 59.044898,94.3296774 C56.9684694,92.3767742 54.6283673,91.083871 52.3755102,90.4354839 C52.4646939,89.9729032 52.5267347,89.5064516 52.5267347,89.0322581 C52.5267347,86.46 51.1909184,84.1916129 49.1610204,82.7825806 L52.17,78.536129 L49.0039796,76.3025806 L45.4017347,81.3851613 C45.0760204,81.3464516 44.7541837,81.2903226 44.4168367,81.2903226 C44.0794898,81.2903226 43.7576531,81.3464516 43.4319388,81.3851613 L39.8277551,76.3006452 L36.6617347,78.5380645 L39.6707143,82.7825806 C37.6408163,84.1916129 36.305,86.4580645 36.305,89.0322581 C36.305,89.5006452 36.365102,89.9632258 36.4523469,90.42 C35.8396939,90.5941935 35.225102,90.8167742 34.6066327,91.0916129 C32.0978571,85.5793548 30.8163265,79.6896774 30.8163265,73.5483871 C30.8163265,66.8109677 33.7942857,58.9974194 39.6203061,50.3225806 L40.5102041,50.3225806 L40.5102041,63.8709677 C40.5102041,67.0722581 43.1197959,69.6774194 46.3265306,69.6774194 C49.5332653,69.6774194 52.1428571,67.0722581 52.1428571,63.8709677 L52.1428571,60 C52.1428571,58.9316129 53.0114286,58.0645161 54.0816327,58.0645161 C55.1518367,58.0645161 56.0204082,58.9316129 56.0204082,60 L56.0204082,75.483871 C56.0204082,78.6851613 58.63,81.2903226 61.8367347,81.2903226 C65.0434694,81.2903226 67.6530612,78.6851613 67.6530612,75.483871 L67.6530612,52.2580645 C67.6530612,51.1896774 68.5216327,50.3225806 69.5918367,50.3225806 C70.6620408,50.3225806 71.5306122,51.1896774 71.5306122,52.2580645 L71.5306122,67.7419355 C71.5306122,70.9432258 74.1402041,73.5483871 77.3469388,73.5483871 C80.5536735,73.5483871 83.1632653,70.9432258 83.1632653,67.7419355 L83.1632653,58.0645161 L79.2857143,58.0645161 L79.2857143,67.7419355 C79.2857143,68.8103226 78.4171429,69.6774194 77.3469388,69.6774194 C76.2767347,69.6774194 75.4081633,68.8103226 75.4081633,67.7419355 L75.4081633,52.2580645 C75.4081633,49.0567742 72.7985714,46.4516129 69.5918367,46.4516129 C66.385102,46.4516129 63.7755102,49.0567742 63.7755102,52.2580645 L63.7755102,75.483871 C63.7755102,76.5522581 62.9069388,77.4193548 61.8367347,77.4193548 C60.7665306,77.4193548 59.8979592,76.5522581 59.8979592,75.483871 L59.8979592,60 C59.8979592,56.7987097 57.2883673,54.1935484 54.0816327,54.1935484 C50.874898,54.1935484 48.2653061,56.7987097 48.2653061,60 L48.2653061,63.8709677 C48.2653061,64.9393548 47.3967347,65.8064516 46.3265306,65.8064516 C45.2563265,65.8064516 44.3877551,64.9393548 44.3877551,63.8709677 L44.3877551,44.516129 C44.3877551,43.4477419 45.2563265,42.5806452 46.3265306,42.5806452 L85.1020408,42.5806452 L88.9795918,42.5806452 L112.244898,42.5806452 C113.315102,42.5806452 114.183673,43.4477419 114.183673,44.516129 C114.183673,45.5845161 113.315102,46.4516129 112.244898,46.4516129 L85.1020408,46.4516129 C81.8953061,46.4516129 79.2857143,49.0567742 79.2857143,52.2580645 L79.2857143,54.1935484 L83.1632653,54.1935484 L83.1632653,52.2580645 C83.1632653,51.1896774 84.0318367,50.3225806 85.1020408,50.3225806 L107.320408,50.3225806 C113.222041,59.1019355 116.122449,66.7141935 116.122449,73.5483871 C116.122449,97.0277419 96.9886735,116.129032 73.4693878,116.129032 Z" id="Shape" fill="#EB6D2F"></path>
                <path d="M32.5416,36.4847669 C34.35705,36.4847669 35.9775,35.9499408 37.16895,34.8299063 C38.3682,33.7118097 39,32.1577134 39,30.3381419 C39,27.311336 37.2216,23.8388416 34.242,21.0503822 C32.15355,19.0951663 29.7999,17.800732 27.534,17.1515771 C27.62565,16.6903865 27.6861,16.2214447 27.6861,15.7466896 C27.6861,13.1694477 26.34255,10.9003122 24.3009,9.48961137 L27.3273,5.23813112 L24.14295,3.00193778 L20.51985,8.09053719 C20.19225,8.05178168 19.86855,7.99558618 19.52925,7.99558618 C19.18995,7.99558618 18.8682,8.05178168 18.53865,8.09053719 L14.91165,3 L11.72925,5.2400689 L14.75565,9.48961137 C12.714,10.9003122 11.37045,13.1694477 11.37045,15.7466896 C11.37045,16.2156314 11.4309,16.6787598 11.51865,17.1380127 C9.2352,17.7813543 6.86205,19.0796641 4.75605,21.0523199 C1.7784,23.8388416 0,27.311336 0,30.3381419 C0,32.1557756 0.6318,33.7098719 1.8291,34.8299063 C3.02055,35.948003 4.641,36.4847669 6.45645,36.4847669 C8.51955,36.4847669 10.82835,35.7774787 13.04745,34.4597912 C14.5587,37.2947572 16.9104,39 19.52925,39 C22.1598,39 24.49395,37.3102594 26.0013,34.4888578 C28.2048,35.7891054 30.49605,36.4847669 32.5416,36.4847669 Z M19.5273,11.8711379 C21.87705,11.8711379 23.7861,13.6112606 23.7861,15.7466896 C23.7861,16.089676 23.73345,16.4229734 23.63985,16.746582 C22.1793,16.8938529 20.8611,17.3744214 19.86465,18.3084293 C19.7262,18.4363225 19.62285,18.5913446 19.50195,18.7308645 C19.3791,18.5913446 19.27575,18.4363225 19.1373,18.3084293 C18.15255,17.386048 16.85775,16.9074174 15.4206,16.7504575 C15.3231,16.426849 15.27045,16.0916137 15.27045,15.7466896 C15.27045,13.6112606 17.1795,11.8711379 19.5273,11.8711379 Z M13.53495,29.2684896 C10.1127,32.4774464 5.94555,33.36301 4.5045,32.0123802 C4.1028,31.6345139 3.9,31.0725589 3.9,30.3381419 C3.9,28.8092367 4.8282,26.3075681 7.4295,23.8698461 C9.82605,21.6278394 12.58725,20.5194316 14.52165,20.5194316 C15.35235,20.5194316 16.029,20.7228981 16.4619,21.1259554 C16.86165,21.5018839 17.0664,22.0657767 17.0664,22.8001938 C17.0664,24.7515341 15.7131,27.2280116 13.53495,29.2684896 Z M19.52925,35.1244483 C18.2793,35.1244483 17.0274,33.9617828 16.2045,32.0957046 C16.20645,32.0937668 16.2084,32.091829 16.21035,32.091829 C17.58705,30.8032081 18.69465,29.3653784 19.50195,27.8946065 C20.30925,29.3653784 21.4149,30.8012703 22.7916,32.091829 C22.80525,32.1034557 22.8189,32.1131446 22.8306,32.126709 C22.00965,33.9520939 20.7636,35.1244483 19.52925,35.1244483 Z M21.93165,22.8021316 C21.93165,22.0677145 22.13445,21.5038217 22.53615,21.1278932 C22.96905,20.7228981 23.6457,20.5213694 24.4764,20.5213694 C26.4108,20.5213694 29.172,21.6278394 31.56855,23.8717838 C34.1718,26.3075681 35.1,28.8092367 35.1,30.3381419 C35.1,31.0725589 34.89525,31.6345139 34.4955,32.0104425 C33.0525,33.3610722 28.8873,32.4755087 25.4631,29.2704274 C23.2869,27.2299494 21.93165,24.7534718 21.93165,22.8021316 Z" id="Shape" fill="#F6BB05"></path>
                <rect id="Rectangle" fill="#F6BB05" x="87" y="54" width="4" height="4"></rect>
                <rect id="Rectangle" fill="#F6BB05" x="87" y="62" width="4" height="15"></rect>
            </g>
        </g>
    </g>
</svg>