<?xml version="1.0" encoding="UTF-8"?>
<svg width="286px" height="307px" viewBox="0 0 286 307" version="1.1" xmlns="http://www.w3.org/2000/svg" xmlns:xlink="http://www.w3.org/1999/xlink">
    <!-- Generator: Sketch 58 (84663) - https://sketch.com -->
    <title>icon2 copy 7</title>
    <desc>Created with Sketch.</desc>
    <defs>
        <path d="M136.891514,6.78318171 L221.144689,54.8430521 C228.631388,59.1136302 233.253175,67.0708429 233.253175,75.6899201 L233.253175,171.31008 C233.253175,179.929157 228.631388,187.88637 221.144689,192.156948 L136.891514,240.216818 C129.521224,244.420994 120.478776,244.420994 113.108486,240.216818 L28.855311,192.156948 C21.3686125,187.88637 16.7468245,179.929157 16.7468245,171.31008 L16.7468245,75.6899201 C16.7468245,67.0708429 21.3686125,59.1136302 28.855311,54.8430521 L113.108486,6.78318171 C120.478776,2.57900573 129.521224,2.57900573 136.891514,6.78318171 Z" id="path-1"></path>
        <filter x="-13.3%" y="-18.4%" width="126.6%" height="137.5%" filterUnits="objectBoundingBox" id="filter-2">
            <feMorphology radius="14.5" operator="dilate" in="SourceAlpha" result="shadowSpreadOuter1"></feMorphology>
            <feOffset dx="0" dy="1" in="shadowSpreadOuter1" result="shadowOffsetOuter1"></feOffset>
            <feGaussianBlur stdDeviation="10" in="shadowOffsetOuter1" result="shadowBlurOuter1"></feGaussianBlur>
            <feComposite in="shadowBlurOuter1" in2="SourceAlpha" operator="out" result="shadowBlurOuter1"></feComposite>
            <feColorMatrix values="0 0 0 0 0.35328424   0 0 0 0 0.215828061   0 0 0 0 0.200043112  0 0 0 0.2 0" type="matrix" in="shadowBlurOuter1"></feColorMatrix>
        </filter>
    </defs>
    <g id="Page-1" stroke="none" stroke-width="1" fill="none" fill-rule="evenodd">
        <g id="icon2-copy-7" transform="translate(18.000000, 29.000000)">
            <g id="ффффф" stroke-linejoin="round">
                <use fill="black" fill-opacity="1" filter="url(#filter-2)" xlink:href="#path-1"></use>
                <use stroke="#FFFFFF" stroke-width="24" fill="#F9F4F0" fill-rule="evenodd" xlink:href="#path-1"></use>
            </g>
            <g id="014-honey-1" transform="translate(65.000000, 64.000000)" fill-rule="nonzero">
                <path d="M115.277419,47.9988407 C113.206452,46.0492078 110.870323,44.7584697 108.62129,44.1111684 C108.710323,43.6493624 108.770323,43.1836919 108.770323,42.7102924 C108.770323,40.1404096 107.436774,37.8777534 105.410323,36.4710808 L108.414194,32.2317403 L105.253548,30.0019322 L101.657419,35.0760015 C101.332258,35.0373567 101.010968,34.9813217 100.674194,34.9813217 C100.337419,34.9813217 100.016129,35.0373567 99.6909677,35.0760015 L96.0929032,30 L92.9322581,32.2336725 L95.936129,36.4710808 C93.9096774,37.8777534 92.576129,40.1404096 92.576129,42.7102924 C92.576129,43.1778951 92.636129,43.6397011 92.7232258,44.0957104 C90.4567742,44.737215 88.1012903,46.0337498 86.0109677,47.9988407 C85.1941935,48.765941 84.4780645,49.5890764 83.8548387,50.4392632 L42.5806452,50.4392632 C39.3793548,50.4392632 36.7741935,53.0400618 36.7741935,56.2359912 L36.7741935,58.1682339 L13.5483871,58.1682339 C10.3470968,58.1682339 7.74193548,60.7690326 7.74193548,63.964962 L7.74193548,67.8294474 C7.74193548,69.3192065 8.32258065,70.6659796 9.2516129,71.6939328 C8.32258065,72.7218859 7.74193548,74.068659 7.74193548,75.5584181 L7.74193548,79.4229035 C7.74193548,80.9126626 8.32258065,82.2594358 9.2516129,83.2873889 C8.32258065,84.315342 7.74193548,85.6621152 7.74193548,87.1518743 L7.74193548,91.0163597 C7.74193548,91.6965091 7.88129032,92.3418781 8.09806452,92.9486023 L5.80645161,92.9486023 C2.60516129,92.9486023 0,95.549401 0,98.7453304 C0,101.94126 2.60516129,104.542058 5.80645161,104.542058 L6.45677419,104.542058 C10.5290323,113.836146 19.8464516,120 30.0851613,120 L66.6890323,120 C76.9277419,120 86.2432258,113.836146 90.3174194,104.542058 L90.9677419,104.542058 C94.1690323,104.542058 96.7741935,101.94126 96.7741935,98.7453304 C96.7741935,95.549401 94.1690323,92.9486023 90.9677419,92.9486023 L88.676129,92.9486023 C88.8929032,92.3418781 89.0322581,91.6965091 89.0322581,91.0163597 L89.0322581,89.5092104 C90.2109677,88.4484091 90.9677419,86.9277341 90.9677419,85.2196316 L90.9677419,62.850058 C92.0554839,62.5138477 93.1567742,62.0172614 94.2406452,61.3699601 C95.7406452,64.1968311 98.0748387,65.8972047 100.674194,65.8972047 C103.285161,65.8972047 105.601935,64.2122891 107.096129,61.3989437 C109.285161,62.6954786 111.559355,63.3891537 113.589677,63.3891537 C115.391613,63.3891537 117,62.8558547 118.182581,61.7390184 C119.372903,60.6241144 120,59.0744558 120,57.2600799 C120,54.2419168 118.234839,50.7793379 115.277419,47.9988407 Z M100.674194,38.845807 C103.004516,38.845807 104.899355,40.5790287 104.899355,42.7102924 C104.899355,43.0522994 104.847097,43.3846451 104.754194,43.7053974 C103.304516,43.8522478 101.996129,44.331444 101.005161,45.2647172 C100.867742,45.3922453 100.765161,45.5468247 100.645161,45.6859462 C100.523226,45.5468247 100.420645,45.3922453 100.283226,45.2647172 C99.3058065,44.3449697 98.0206452,43.8657735 96.5941935,43.7111941 C96.4993548,43.3885096 96.4470968,43.0542316 96.4470968,42.7102924 C96.4470968,40.5790287 98.3419355,38.845807 100.674194,38.845807 Z M11.6129032,63.964962 C11.6129032,62.898364 12.48,62.0327193 13.5483871,62.0327193 L36.7741935,62.0327193 L38.7096774,62.0327193 L61.9354839,62.0327193 C63.003871,62.0327193 63.8709677,62.898364 63.8709677,63.964962 L63.8709677,69.7616901 L13.5483871,69.7616901 C12.48,69.7616901 11.6129032,68.8960453 11.6129032,67.8294474 L11.6129032,63.964962 Z M11.6129032,75.5584181 C11.6129032,74.4918202 12.48,73.6261754 13.5483871,73.6261754 L63.8709677,73.6261754 C63.8709677,76.8221049 66.476129,79.4229035 69.6774194,79.4229035 C72.8787097,79.4229035 75.483871,76.8221049 75.483871,73.6261754 L75.483871,69.7616901 C75.483871,68.6950921 76.3509677,67.8294474 77.4193548,67.8294474 C78.4877419,67.8294474 79.3548387,68.6950921 79.3548387,69.7616901 L79.3548387,73.6261754 L83.2258065,73.6261754 L83.2258065,69.7616901 C83.2258065,66.5657607 80.6206452,63.964962 77.4193548,63.964962 C74.2180645,63.964962 71.6129032,66.5657607 71.6129032,69.7616901 L71.6129032,73.6261754 C71.6129032,74.6927734 70.7458065,75.5584181 69.6774194,75.5584181 C68.6090323,75.5584181 67.7419355,74.6927734 67.7419355,73.6261754 L67.7419355,63.964962 C67.7419355,60.7690326 65.1367742,58.1682339 61.9354839,58.1682339 L40.6451613,58.1682339 L40.6451613,56.2359912 C40.6451613,55.1693933 41.5122581,54.3037486 42.5806452,54.3037486 L81.8187097,54.3037486 C81.483871,55.310447 81.2903226,56.3074842 81.2903226,57.2600799 C81.2903226,59.0725235 81.9174194,60.6221821 83.1058065,61.7390184 C84.1529032,62.7263944 85.5445161,63.232642 87.0967742,63.3427799 L87.0967742,85.2196316 C87.0967742,86.2862296 86.2296774,87.1518743 85.1612903,87.1518743 C84.0929032,87.1518743 83.2258065,86.2862296 83.2258065,85.2196316 L83.2258065,77.4906608 L79.3548387,77.4906608 L79.3548387,81.3551462 L13.5483871,81.3551462 C12.48,81.3551462 11.6129032,80.4895015 11.6129032,79.4229035 L11.6129032,75.5584181 Z M11.6129032,87.1518743 C11.6129032,86.0852763 12.48,85.2196316 13.5483871,85.2196316 L79.3548387,85.2196316 C79.3548387,88.415561 81.96,91.0163597 85.1612903,91.0163597 C85.1612903,92.0829576 84.2941935,92.9486023 83.2258065,92.9486023 L13.5483871,92.9486023 C12.48,92.9486023 11.6129032,92.0829576 11.6129032,91.0163597 L11.6129032,87.1518743 Z M66.6890323,116.135515 L30.0851613,116.135515 C21.963871,116.135515 14.5258065,111.571557 10.7535484,104.542058 L86.0206452,104.542058 C82.2483871,111.571557 74.8103226,116.135515 66.6890323,116.135515 Z M90.9677419,96.8130877 C92.036129,96.8130877 92.9032258,97.6787324 92.9032258,98.7453304 C92.9032258,99.8119284 92.036129,100.677573 90.9677419,100.677573 L5.80645161,100.677573 C4.73806452,100.677573 3.87096774,99.8119284 3.87096774,98.7453304 C3.87096774,97.6787324 4.73806452,96.8130877 5.80645161,96.8130877 L13.5483871,96.8130877 L83.2258065,96.8130877 L90.9677419,96.8130877 Z M94.7245161,56.1934819 C91.3277419,59.3894113 87.1896774,60.2724462 85.7593548,58.9256731 C85.3625806,58.5527502 85.1612903,57.9923998 85.1612903,57.2600799 C85.1612903,55.7355404 86.0825806,53.2410151 88.6645161,50.8102538 C91.0432258,48.574649 93.783871,47.4694062 95.703871,47.4694062 C96.5283871,47.4694062 97.2,47.6703594 97.6296774,48.0741981 C98.0264516,48.4490532 98.2296774,49.0113358 98.2296774,49.7436558 C98.2296774,51.6894242 96.8864516,54.1588303 94.7245161,56.1934819 Z M100.674194,62.0327193 C99.4335484,62.0327193 98.1909677,60.8733737 97.3741935,59.012624 C97.376129,59.0106917 97.3780645,59.0087595 97.38,59.0087595 C98.7464516,57.7238181 99.8458065,56.290094 100.647097,54.8235218 C101.448387,56.290094 102.545806,57.7218859 103.912258,59.0087595 C103.925806,59.020353 103.939355,59.0300142 103.950968,59.0435399 C103.136129,60.8637125 101.899355,62.0327193 100.674194,62.0327193 Z M115.529032,58.9295375 C114.094839,60.2763107 109.962581,59.3932758 106.563871,56.1973464 C104.403871,54.1626948 103.05871,51.6932887 103.05871,49.7475203 C103.05871,49.0152003 103.26,48.4529177 103.65871,48.0780626 C104.088387,47.6742239 104.76,47.4732706 105.584516,47.4732706 C107.504516,47.4732706 110.245161,48.5765812 112.623871,50.8141183 C115.207742,53.2410151 116.129032,55.7355404 116.129032,57.2600799 C116.129032,57.9923998 115.925806,58.5527502 115.529032,58.9295375 Z" id="Shape" fill="#EB6D2F"></path>
                <path d="M26.8235294,41.125 C30.0342353,41.125 32.6470588,38.4890833 32.6470588,35.25 L32.6470588,29.375 L36.5294118,29.375 L36.5294118,41.125 C36.5294118,44.3640833 39.1422353,47 42.3529412,47 C45.5636471,47 48.1764706,44.3640833 48.1764706,41.125 L48.1764706,37.2083333 L44.2941176,37.2083333 L44.2941176,41.125 C44.2941176,42.206 43.4244706,43.0833333 42.3529412,43.0833333 C41.2814118,43.0833333 40.4117647,42.206 40.4117647,41.125 L40.4117647,23.5 C40.4117647,20.2609167 37.7989412,17.625 34.5882353,17.625 C31.3775294,17.625 28.7647059,20.2609167 28.7647059,23.5 L28.7647059,35.25 C28.7647059,36.331 27.8950588,37.2083333 26.8235294,37.2083333 C25.752,37.2083333 24.8823529,36.331 24.8823529,35.25 L24.8823529,9.79166667 C24.8823529,6.55258333 27.4951765,3.91666667 30.7058824,3.91666667 L42.3529412,3.91666667 C43.4244706,3.91666667 44.2941176,4.794 44.2941176,5.875 L44.2941176,33.2916667 L48.1764706,33.2916667 L48.1764706,29.375 L50.1176471,29.375 C52.8022941,29.375 55.0443529,27.524375 55.716,25.0275 C56.3876471,25.2997083 57.1155882,25.4583333 57.8823529,25.4583333 L59.8235294,25.4583333 C62.3509412,25.4583333 64.4862353,23.8152917 65.2898824,21.5416667 L114.176471,21.5416667 C117.387176,21.5416667 120,18.90575 120,15.6666667 C120,12.4275833 117.387176,9.79166667 114.176471,9.79166667 L65.2898824,9.79166667 C64.4862353,7.51804167 62.3509412,5.875 59.8235294,5.875 L57.8823529,5.875 C57.1155882,5.875 56.3876471,6.033625 55.716,6.30583333 C55.0443529,3.80895833 52.8022941,1.95833333 50.1176471,1.95833333 L48.1764706,1.95833333 C47.7105882,1.95833333 47.2563529,2.03079167 46.8098824,2.1385 C45.7402941,0.844041667 44.1504706,0 42.3529412,0 L30.7058824,0 C25.3540588,0 21,4.39254167 21,9.79166667 L21,35.25 C21,38.4890833 23.6128235,41.125 26.8235294,41.125 Z M32.6470588,23.5 C32.6470588,22.419 33.5167059,21.5416667 34.5882353,21.5416667 C35.6597647,21.5416667 36.5294118,22.419 36.5294118,23.5 L36.5294118,25.4583333 L32.6470588,25.4583333 L32.6470588,23.5 Z M65.6470588,13.7083333 L114.176471,13.7083333 C115.248,13.7083333 116.117647,14.5856667 116.117647,15.6666667 C116.117647,16.7476667 115.248,17.625 114.176471,17.625 L65.6470588,17.625 L65.6470588,13.7083333 Z M55.9411765,11.75 C55.9411765,10.669 56.8108235,9.79166667 57.8823529,9.79166667 L59.8235294,9.79166667 C60.8950588,9.79166667 61.7647059,10.669 61.7647059,11.75 L61.7647059,19.5833333 C61.7647059,20.6643333 60.8950588,21.5416667 59.8235294,21.5416667 L57.8823529,21.5416667 C56.8108235,21.5416667 55.9411765,20.6643333 55.9411765,19.5833333 L55.9411765,11.75 Z M48.1764706,5.875 L50.1176471,5.875 C51.1891765,5.875 52.0588235,6.75233333 52.0588235,7.83333333 L52.0588235,11.75 L52.0588235,19.5833333 L52.0588235,23.5 C52.0588235,24.581 51.1891765,25.4583333 50.1176471,25.4583333 L48.1764706,25.4583333 L48.1764706,5.875 Z" id="Shape" fill="#F6BB05"></path>
            </g>
        </g>
    </g>
</svg>