<?xml version="1.0" encoding="UTF-8"?>
<svg width="286px" height="307px" viewBox="0 0 286 307" version="1.1" xmlns="http://www.w3.org/2000/svg" xmlns:xlink="http://www.w3.org/1999/xlink">
    <!-- Generator: Sketch 58 (84663) - https://sketch.com -->
    <title>icon2 copy 5</title>
    <desc>Created with Sketch.</desc>
    <defs>
        <path d="M136.891514,6.78318171 L221.144689,54.8430521 C228.631388,59.1136302 233.253175,67.0708429 233.253175,75.6899201 L233.253175,171.31008 C233.253175,179.929157 228.631388,187.88637 221.144689,192.156948 L136.891514,240.216818 C129.521224,244.420994 120.478776,244.420994 113.108486,240.216818 L28.855311,192.156948 C21.3686125,187.88637 16.7468245,179.929157 16.7468245,171.31008 L16.7468245,75.6899201 C16.7468245,67.0708429 21.3686125,59.1136302 28.855311,54.8430521 L113.108486,6.78318171 C120.478776,2.57900573 129.521224,2.57900573 136.891514,6.78318171 Z" id="path-1"></path>
        <filter x="-13.3%" y="-18.4%" width="126.6%" height="137.5%" filterUnits="objectBoundingBox" id="filter-2">
            <feMorphology radius="14.5" operator="dilate" in="SourceAlpha" result="shadowSpreadOuter1"></feMorphology>
            <feOffset dx="0" dy="1" in="shadowSpreadOuter1" result="shadowOffsetOuter1"></feOffset>
            <feGaussianBlur stdDeviation="10" in="shadowOffsetOuter1" result="shadowBlurOuter1"></feGaussianBlur>
            <feComposite in="shadowBlurOuter1" in2="SourceAlpha" operator="out" result="shadowBlurOuter1"></feComposite>
            <feColorMatrix values="0 0 0 0 0.35328424   0 0 0 0 0.215828061   0 0 0 0 0.200043112  0 0 0 0.2 0" type="matrix" in="shadowBlurOuter1"></feColorMatrix>
        </filter>
    </defs>
    <g id="Page-1" stroke="none" stroke-width="1" fill="none" fill-rule="evenodd">
        <g id="icon2-copy-5" transform="translate(18.000000, 29.000000)">
            <g id="ффффф" stroke-linejoin="round">
                <use fill="black" fill-opacity="1" filter="url(#filter-2)" xlink:href="#path-1"></use>
                <use stroke="#FFFFFF" stroke-width="24" fill="#F9F4F0" fill-rule="evenodd" xlink:href="#path-1"></use>
            </g>
            <g id="flower" transform="translate(68.000000, 64.000000)" fill-rule="nonzero">
                <path d="M61.9997662,87 C60.8951245,87 60,87.8955922 60,89.0002338 C60,90.1048755 60.8955922,91 61.9997662,91 C63.1039401,91 64,90.1044078 64,89.0002338 C64,87.8960599 63.1044078,87 61.9997662,87 Z" id="Path" fill="#F6BB05"></path>
                <path d="M69,8 C70.1045,8 71,7.1045 71,6 L71,2 C71,0.8955 70.1045,0 69,0 C67.8955,0 67,0.8955 67,2 L67,6 C67,7.1045 67.8955,8 69,8 Z" id="Path" fill="#F6BB05"></path>
                <path d="M69,11 C67.8955,11 67,11.8955 67,13 L67,17 C67,18.1045 67.8955,19 69,19 C70.1045,19 71,18.1045 71,17 L71,13 C71,11.8955 70.1045,11 69,11 Z" id="Path" fill="#F6BB05"></path>
                <path d="M61,12 L65,12 C66.1045,12 67,11.1045 67,10 C67,8.8955 66.1045,8 65,8 L61,8 C59.8955,8 59,8.8955 59,10 C59,11.1045 59.8955,12 61,12 Z" id="Path" fill="#F6BB05"></path>
                <path d="M73,12 L77,12 C78.1045,12 79,11.1045 79,10 C79,8.8955 78.1045,8 77,8 L73,8 C71.8955,8 71,8.8955 71,10 C71,11.1045 71.8955,12 73,12 Z" id="Path" fill="#F6BB05"></path>
                <path d="M97,98 C93.1405,98 90,101.1405 90,105 C90,108.8595 93.1405,112 97,112 C100.8595,112 104,108.8595 104,105 C104,101.1405 100.8595,98 97,98 Z M97,108 C95.3455,108 94,106.6545 94,105 C94,103.3455 95.3455,102 97,102 C98.6545,102 100,103.3455 100,105 C100,106.6545 98.654,108 97,108 Z" id="Shape" fill="#F6BB05"></path>
                <path d="M56,41.0002338 C56,39.8955922 55.1044078,39 53.9997662,39 C52.8951245,39 52,39.8955922 52,41.0002338 C52,42.1048755 52.8955922,43 53.9997662,43 C55.1039401,43 56,42.1048755 56,41.0002338 Z" id="Path" fill="#F6BB05"></path>
                <path d="M61.9997662,95 C60.8951245,95 60,95.8955922 60,97.0002338 C60,98.1048755 60.8955922,99 61.9997662,99 C63.1039401,99 64,98.1044078 64,97.0002338 C64,95.8960599 63.1044078,95 61.9997662,95 Z" id="Path" fill="#F6BB05"></path>
                <path d="M48,23.7764546 C48,17.6258774 43.0088176,12.6217968 36.8751682,12.6217968 C35.8006709,12.6217968 34.7642557,12.7832343 33.7808665,13.0698585 C31.8844678,9.36742847 28.1104706,7 23.9117842,7 C19.6234358,7 15.9010183,9.44959728 14.0446301,13.0224906 C13.097877,12.7643838 12.1226826,12.6213134 11.1248318,12.6213134 C4.99070038,12.6213134 0,17.6258774 0,23.7759713 C0,26.9936053 1.39168859,30.034818 3.77062285,32.140273 C2.50185791,33.952337 1.75033643,36.1530111 1.75033643,38.5301065 C1.75033643,44.6806837 6.74151887,49.6847643 12.8751682,49.6847643 C13.7713058,49.6847643 14.6534638,49.5499108 15.5177858,49.3382053 C17.176532,51.2537053 19.4711069,52.5920902 22.0717858,53.029035 L22.0717858,66.6458571 C21.614799,65.8768537 21.1351558,65.110267 20.6039328,64.3586641 C15.5038062,57.1394089 5.86562757,55.4327144 5.45684616,55.3640793 C4.40982586,55.1857246 3.41679555,55.8938264 3.23602547,56.9417205 C3.16564565,57.3506311 1.57438689,67.0344673 6.67451343,74.2532391 C10.9233334,80.266546 16.1603631,83.8578065 20.1503204,83.8578065 C20.8333902,83.8578065 21.4735574,83.7389034 22.0717858,83.5223644 L22.0717858,102.599546 L16.2871432,102.599546 C7.78130837,102.599546 0.86142969,109.537977 0.86142969,118.066616 C0.86142969,119.134327 1.7247876,120 2.78964388,120 C3.85450017,120 4.71785808,119.134327 4.71785808,118.066616 C4.71785808,111.670016 9.90764657,106.466313 16.2871432,106.466313 L31.7128568,106.466313 C38.0923534,106.466313 43.2821419,111.670016 43.2821419,118.066616 C43.2821419,119.134327 44.1454998,120 45.2103561,120 C46.2752124,120 47.1385703,119.134327 47.1385703,118.066616 C47.1385703,109.537977 40.2186916,102.599546 31.7128568,102.599546 L25.9282142,102.599546 L25.9282142,95.843336 C26.7645771,96.3310321 27.7306124,96.5765718 28.797879,96.5765718 C32.7314359,96.5765718 37.9559323,93.3802051 42.418784,87.889395 L42.4197481,87.889395 C47.9937333,81.0311993 47.0556571,71.2622943 47.0132364,70.8495169 C46.9038102,69.7905059 45.9585032,69.0210191 44.903288,69.1249385 C44.4911322,69.1665063 34.7603993,70.2182671 29.184968,77.0754961 C27.9176492,78.6352535 26.8277261,80.2641293 25.9282142,81.8896217 L25.9282142,53.0024509 C28.4792416,52.5311886 30.725129,51.1879702 32.3501316,49.2893873 C33.2549461,49.5238101 34.1766325,49.6852477 35.1253138,49.6852477 C41.2594452,49.6852477 46.2501456,44.6806837 46.2501456,38.5305898 C46.2501456,36.1462442 45.4933215,33.9388033 44.2173258,32.1238392 C46.577942,30.0256344 48,26.9882885 48,23.7764546 L48,23.7764546 Z M21.0276578,79.7653163 C19.4686966,80.8678284 14.3295238,78.4022807 9.82087694,72.0187307 C6.92469922,67.9199571 6.70440075,62.5833344 6.84275012,59.6866421 C9.6126298,60.5165471 14.5613915,62.4958488 17.4575692,66.5951058 C19.543897,69.5478662 21.0435656,72.7877341 21.5718963,75.4823878 C21.9859803,77.5921929 21.776769,79.2326691 21.0276578,79.7653163 L21.0276578,79.7653163 Z M27.4722317,88.1088341 C28.1803684,85.4552648 29.8945508,82.3246331 32.174182,79.5192932 C35.3403097,75.6249749 40.4105489,73.9844987 43.2305622,73.3445487 C43.1741619,76.242691 42.5952156,81.5527296 39.42957,85.447048 L39.4305341,85.447048 C34.4991263,91.513523 29.2066604,93.6242948 27.7277201,92.4178633 C27.015727,91.8354314 26.9178701,90.1843216 27.4722317,88.1088341 L27.4722317,88.1088341 Z M44.1435716,23.7764546 C44.1435716,25.9587616 43.1447567,28.0216821 41.4893848,29.3958347 C39.6840942,28.1270515 37.4917147,27.3764153 35.1248318,27.3764153 C34.397895,27.3764153 33.6830096,27.4721178 32.9768012,27.6108381 C32.3043365,25.8606424 31.1449977,24.3646867 29.6573804,23.2752249 C29.9196176,19.4940095 33.038504,16.4890477 36.8751682,16.4890477 C40.8829614,16.4885644 44.1435716,19.757433 44.1435716,23.7764546 L44.1435716,23.7764546 Z M18.2153574,31.0643449 C18.2153574,27.8660447 20.8102517,25.2641935 24,25.2641935 C27.1897483,25.2641935 29.7846426,27.8660447 29.7846426,31.0643449 C29.7846426,34.2626451 27.1897483,36.8644963 24,36.8644963 C20.8102517,36.8644963 18.2153574,34.2626451 18.2153574,31.0643449 Z M23.9113021,10.8667676 C26.6334585,10.8667676 29.0818085,12.3897907 30.3312913,14.7755863 C28.1186655,16.3976953 26.5187298,18.8095916 25.9658144,21.6018812 C25.3304678,21.4694444 24.6739109,21.3974259 24,21.3974259 C21.9975496,21.3974259 20.137787,22.0146586 18.5947336,23.0664194 C17.3635688,21.7294845 16.6433808,20.0073229 16.6433808,18.1546579 C16.6428987,14.1361196 19.9035089,10.8667676 23.9113021,10.8667676 L23.9113021,10.8667676 Z M11.1248318,16.4885644 C11.7283628,16.4885644 12.3135758,16.5862003 12.8877016,16.7302374 C12.827927,17.1976329 12.7864704,17.6713119 12.7864704,18.1546579 C12.7864704,21.0697173 13.9091731,23.8083555 15.8933055,25.8746594 C15.5462269,26.4179403 15.258441,26.9979554 15.0241629,27.6074546 C14.3184365,27.4687344 13.6030691,27.3759319 12.8751682,27.3759319 C10.5222648,27.3759319 8.34097254,28.1169013 6.5419487,29.3721507 C4.87259726,27.992198 3.85642838,25.9626284 3.85642838,23.7764546 C3.85642838,19.757433 7.11655653,16.4885644 11.1248318,16.4885644 L11.1248318,16.4885644 Z M12.8751682,45.8184801 C8.86737502,45.8184801 5.60676482,42.5491281 5.60676482,38.5305898 C5.60676482,34.5120516 8.86737502,31.2426996 12.8751682,31.2426996 C13.3919296,31.2426996 13.8971217,31.3156848 14.3950831,31.4225042 C14.4437705,32.7256049 14.7421616,33.9595871 15.2579589,35.0823998 C13.6782694,37.0573513 12.7864704,39.4977651 12.7864704,42.0406481 C12.7864704,43.352449 13.0255689,44.6067318 13.4420632,45.7769123 C13.2530982,45.791896 13.0655794,45.8184801 12.8751682,45.8184801 Z M23.9113021,49.3285384 C19.9035089,49.3285384 16.6428987,46.0591864 16.6428987,42.0406481 C16.6428987,40.7138635 17.0029927,39.4233298 17.6730472,38.3000338 C19.3708398,39.7945395 21.5685219,40.7312639 24,40.7312639 C26.3692932,40.7312639 28.5129853,39.8365906 30.193424,38.4102367 C30.8253962,39.507432 31.1797055,40.7501144 31.1797055,42.0406481 C31.1797055,46.0591864 27.9195774,49.3285384 23.9113021,49.3285384 Z M35.1248318,45.8184801 C34.8760922,45.8184801 34.6350654,45.7735289 34.3906642,45.7488783 C34.8013739,44.5864312 35.0361339,43.3418154 35.0361339,42.0401648 C35.0361339,39.548033 34.172776,37.1796379 32.6615382,35.229337 C33.2207203,34.0664066 33.5538193,32.7840898 33.6049169,31.4215376 C34.1028783,31.3156848 34.6080704,31.2422162 35.1248318,31.2422162 C39.132625,31.2422162 42.3932352,34.5115682 42.3932352,38.5301065 C42.3932352,42.5486447 39.132625,45.8184801 35.1248318,45.8184801 Z" id="Shape" fill="#EB6D2F"></path>
                <path d="M100.289963,46.8149784 C95.7795945,44.6486586 91.2149591,43.4467068 87.3380204,43.410416 C87.6165568,41.4182921 87.433107,39.3937485 86.7554952,37.4698513 C85.64231,34.301905 83.3703173,31.7615479 80.3587625,30.3157218 C79.8703633,30.0815251 79.3699582,29.892329 78.8642706,29.7249073 L80.447606,23.4064344 C80.7074132,22.3704525 80.0835877,21.3180189 79.0549239,21.0562411 C78.0363451,20.8041409 76.9831893,21.4220525 76.7224216,22.459486 L75.0584067,29.0997376 C73.6321082,29.0919955 72.2005271,29.319418 70.8164893,29.8149086 C69.4146828,30.3157218 68.167512,31.0550867 67.0797793,31.9560667 L61.6310309,27.8503657 C60.7810146,27.2087441 59.577065,27.3863272 58.9417139,28.2408549 C58.306843,29.0973182 58.4802079,30.3103992 59.3292637,30.9505692 L64.514363,34.8573965 C62.4896914,38.0238911 61.8769113,42.0603976 63.2196489,45.8767398 C63.8876561,47.7769269 64.9979598,49.4501755 66.4362642,50.8137424 C63.4395966,53.2936148 60.5601064,57.2004421 58.3937655,61.7803431 C56.2927366,66.222339 55.0892672,70.8022399 55.0047458,74.6766475 C54.9082185,79.0900945 56.2869738,82.2086853 58.8850461,83.4566055 C59.6476596,83.8224169 60.4664606,84 61.3256013,84 C64.8803022,84 69.1025299,80.9389906 72.7455941,75.6618221 C73.8414908,76.8565158 75.0334345,77.9210464 76.3199846,78.7983164 C79.0361948,80.6515674 81.9156849,81.5985157 84.7140154,81.5985157 C86.1014148,81.5985157 87.4686444,81.3652868 88.7864098,80.8944739 C92.7613164,79.4747772 95.7349327,76.0866666 97.15883,71.3548281 C97.6006464,69.8867436 97.8580524,68.3368838 97.967546,66.74783 C100.597314,67.5060661 103.042671,67.9009102 105.180679,67.9009102 C109.242028,67.9009102 112.234373,66.55815 113.459933,63.9645663 C115.836617,58.9346593 110.175124,51.562301 100.289963,46.8149784 L100.289963,46.8149784 Z M94.1463147,66.3675022 C90.9306599,67.2650951 87.7591867,68.2560763 84.7216991,69.3418975 C81.6803697,70.4277187 78.5987005,71.671284 75.5420036,73.0135603 C74.2655384,71.6185414 73.1576359,69.9820675 72.2629577,68.1612363 C75.6942381,66.6002473 79.2210853,65.1452276 82.7949956,63.8677908 C86.3756291,62.5898702 90.0234956,61.4832423 93.6603167,60.5198421 C94.1030935,62.5013207 94.2658932,64.4740894 94.1463147,66.3675022 Z M85.6202192,47.8877349 C85.8987556,48.0778988 86.1667268,48.2912888 86.4356585,48.5012916 C83.7060017,49.2919475 80.9801868,50.1421204 78.3033559,51.0992302 C75.6659042,52.0398881 73.0337352,53.1068381 70.3588252,54.2574989 C70.4375838,53.9183007 70.5134609,53.5781348 70.6123894,53.2486142 C71.6732289,49.7235663 73.7968289,47.2330486 76.5917977,46.2343253 C77.4821537,45.9169017 78.4133297,45.7601251 79.3670768,45.7601251 C81.4099973,45.7596415 83.5566486,46.4796512 85.6202192,47.8877349 L85.6202192,47.8877349 Z M81.5118072,60.219838 C77.8941955,61.5117911 74.3270085,62.9842304 70.8515465,64.5597357 C70.258456,62.5806766 69.9443822,60.5880688 69.9122065,58.6535264 C73.2104617,57.1776999 76.3843361,55.8901017 79.5870245,54.7466991 C82.8574261,53.5781348 86.199863,52.5402175 89.5341359,51.6314955 C90.7217576,53.1571614 91.7268898,54.9078303 92.5048708,56.8264048 C88.8243483,57.8067407 85.1337409,58.9259495 81.5118072,60.219838 Z M72.0987173,33.4628614 C74.2765838,32.6852702 76.6225327,32.8086589 78.705793,33.8107693 C80.7909741,34.8114281 82.3627839,36.570323 83.1350021,38.7637399 C83.5724963,40.0068213 83.7170471,41.3099035 83.5792196,42.5975017 C80.7823299,41.6737795 77.9465411,41.6423274 75.3086093,42.5854048 C72.6692367,43.5275143 70.4856073,45.3527004 68.8897858,47.8475731 C67.9768587,46.9335284 67.2761955,45.824481 66.8396617,44.5833351 C65.2467216,40.0566607 67.6065973,35.068851 72.0987173,33.4628614 Z M60.5375354,79.961558 C59.4185874,79.4249378 58.7865979,77.4807178 58.8456668,74.7618099 C58.9186626,71.4230548 59.9900673,67.4034841 61.862024,63.4453657 C63.0765388,60.8774276 64.5623865,58.5344925 66.1361172,56.6168858 C65.8892763,59.955157 66.3570254,63.4869792 67.5628959,66.9128322 C68.2606777,68.897214 69.1764862,70.7499812 70.2598967,72.4372622 C66.5803347,78.2075019 62.4018084,80.8572153 60.5375354,79.961558 L60.5375354,79.961558 Z M87.5027411,77.2465211 C84.8191869,78.207018 81.7572073,77.6883013 78.834496,75.8156952 C81.2299091,74.8024556 83.6301246,73.8385715 86.0053678,72.9898503 C88.3772494,72.1420969 90.8446978,71.3674089 93.3395196,70.6343344 C92.2417019,73.9406697 90.1872558,76.2869919 87.5027411,77.2465211 L87.5027411,77.2465211 Z M109.990234,62.2990598 C109.10516,64.1740853 104.352753,64.7939325 97.8983922,62.6851941 C97.6909306,60.6490374 97.2423909,58.5896546 96.5306824,56.5670464 C95.3512248,53.2128073 93.5594673,50.2287345 91.3479842,47.8185404 C93.6881703,48.3164504 96.17867,49.1293647 98.6369939,50.3100259 C107.231763,54.4370175 111.042909,60.0746748 109.990234,62.2990598 Z" id="Shape" fill="#EB6D2F"></path>
            </g>
        </g>
    </g>
</svg>