<svg width="851" height="618" viewBox="0 0 851 618" fill="none" xmlns="http://www.w3.org/2000/svg">
<path d="M636 180C634.132 180 632.354 180.33 630.547 180.551L577.347 76.15C585.144 68.055 590 57.101 590 45C590 20.186 569.814 0 545 0C525.47 0 508.976 12.578 502.763 30H347.237C341.024 12.578 324.53 0 305 0C280.186 0 260 20.186 260 45C260 57.101 264.856 68.055 272.653 76.15L219.453 180.551C217.646 180.33 215.868 180 214 180C189.186 180 169 200.186 169 225C169 249.814 189.186 270 214 270C215.868 270 217.646 269.67 219.453 269.449L272.653 373.85C264.856 381.945 260 392.899 260 405C260 429.814 280.186 450 305 450C324.53 450 341.024 437.422 347.237 420H502.763C508.976 437.422 525.47 450 545 450C569.814 450 590 429.814 590 405C590 392.899 585.144 381.945 577.347 373.85L630.547 269.449C632.354 269.67 634.132 270 636 270C660.814 270 681 249.814 681 225C681 200.186 660.814 180 636 180ZM545 90C546.868 90 548.646 89.67 550.453 89.449L603.638 193.821L529.628 168.684C529.731 167.448 530 166.262 530 165C530 151.458 523.862 139.44 514.368 131.184L544.679 89.967C544.789 89.967 544.89 90 545 90ZM590.346 220.963L432.476 260.175C432.46 260.149 432.449 260.116 432.43 260.091L471.67 207.756C475.909 209.084 480.329 210.001 485 210.001C497.704 210.001 509.141 204.663 517.331 196.169L590.346 220.963ZM502.763 60C505.391 67.366 509.844 73.782 515.632 78.816L485.321 120.033C485.211 120.033 485.11 120 485.001 120C474.91 120 465.685 123.457 458.172 129.088L354.541 60H502.763ZM441.509 154.034C440.617 157.564 440 161.197 440 165C440 174.212 442.802 182.77 447.57 189.91L408.33 242.245C404.091 240.917 399.671 240 395 240C394.72 240 394.464 240.077 394.185 240.082L335.377 83.278L441.509 154.034ZM299.548 89.45C301.354 89.67 303.132 90 305 90C305.28 90 305.536 89.923 305.815 89.918L366.139 250.765C363.768 252.766 361.618 254.98 359.703 257.425L258.916 224.171C258.696 212.405 253.961 201.755 246.348 193.851L299.548 89.45ZM318.329 362.245C314.091 360.917 309.671 360 305 360C303.132 360 301.354 360.33 299.547 360.551L246.347 256.15C247.418 255.037 248.343 253.793 249.297 252.576L350.084 285.83C350.251 294.72 352.948 302.991 357.569 309.91L318.329 362.245ZM347.237 390C345.988 386.497 344.463 383.134 342.43 380.09L381.67 327.755C385.909 329.083 390.329 330 395 330C403.694 330 411.745 327.411 418.633 323.124L502.223 390H347.237ZM550.454 360.55C548.646 360.33 546.868 360 545 360C536.306 360 528.255 362.589 521.367 366.876L437.344 299.654C438.488 296.358 439.217 292.903 439.565 289.31L598.525 249.825C600.034 252.094 601.77 254.194 603.654 256.149L550.454 360.55Z" fill="#6B6B6B"/>
<path d="M49.6875 555.358C49.4034 552.233 48.1392 549.804 45.8949 548.071C43.679 546.31 40.5114 545.429 36.392 545.429C33.6648 545.429 31.392 545.784 29.5739 546.494C27.7557 547.205 26.392 548.185 25.483 549.435C24.5739 550.656 24.1051 552.063 24.0767 553.653C24.0199 554.96 24.2756 556.111 24.8438 557.105C25.4403 558.099 26.2926 558.98 27.4006 559.747C28.5369 560.486 29.9006 561.139 31.4915 561.707C33.0824 562.276 34.8722 562.773 36.8608 563.199L44.3608 564.903C48.679 565.841 52.4858 567.091 55.7813 568.653C59.1051 570.216 61.8892 572.077 64.1335 574.236C66.4063 576.395 68.125 578.881 69.2898 581.693C70.4545 584.506 71.0511 587.659 71.0796 591.153C71.0511 596.665 69.6591 601.395 66.9034 605.344C64.1477 609.293 60.1847 612.318 55.0142 614.42C49.8722 616.523 43.6648 617.574 36.392 617.574C29.0909 617.574 22.7273 616.48 17.3011 614.293C11.875 612.105 7.65625 608.781 4.64489 604.321C1.63352 599.861 0.0852272 594.222 0 587.403H20.1989C20.3693 590.216 21.1222 592.56 22.4574 594.435C23.7926 596.31 25.625 597.73 27.9545 598.696C30.3125 599.662 33.0398 600.145 36.1364 600.145C38.9773 600.145 41.392 599.761 43.3807 598.994C45.3977 598.227 46.946 597.162 48.0256 595.798C49.1051 594.435 49.6591 592.872 49.6875 591.111C49.6591 589.463 49.1477 588.057 48.1534 586.892C47.1591 585.699 45.625 584.676 43.5511 583.824C41.5057 582.943 38.892 582.134 35.7102 581.395L26.5909 579.264C19.0341 577.531 13.0824 574.733 8.7358 570.869C4.3892 566.977 2.23011 561.722 2.25852 555.102C2.23011 549.705 3.67898 544.974 6.60511 540.912C9.53125 536.849 13.5795 533.682 18.75 531.409C23.9205 529.136 29.8153 528 36.4347 528C43.196 528 49.0625 529.151 54.0341 531.452C59.0341 533.724 62.9119 536.92 65.6676 541.04C68.4233 545.159 69.8295 549.932 69.8864 555.358H49.6875Z" fill="#6B6B6B"/>
<path d="M77.3864 529.193H100.952L119.403 565.713H120.17L138.622 529.193H162.188L130.27 587.318V616.466H109.304V587.318L77.3864 529.193Z" fill="#6B6B6B"/>
<path d="M245.305 529.193V616.466H227.408L192.678 566.097H192.124V616.466H171.03V529.193H189.183L223.53 579.477H224.254V529.193H245.305Z" fill="#6B6B6B"/>
<path d="M337.788 560.812H316.481C316.197 558.625 315.614 556.651 314.734 554.889C313.853 553.128 312.688 551.622 311.239 550.372C309.79 549.122 308.072 548.17 306.083 547.517C304.123 546.835 301.95 546.494 299.563 546.494C295.33 546.494 291.68 547.531 288.612 549.605C285.572 551.679 283.228 554.676 281.58 558.597C279.961 562.517 279.151 567.261 279.151 572.83C279.151 578.625 279.975 583.483 281.623 587.403C283.299 591.295 285.643 594.236 288.654 596.224C291.694 598.185 295.288 599.165 299.435 599.165C301.765 599.165 303.881 598.866 305.785 598.27C307.717 597.673 309.407 596.807 310.856 595.67C312.333 594.506 313.54 593.099 314.478 591.452C315.444 589.776 316.112 587.886 316.481 585.784L337.788 585.912C337.418 589.776 336.296 593.582 334.421 597.332C332.575 601.082 330.032 604.506 326.793 607.602C323.555 610.67 319.606 613.114 314.947 614.932C310.316 616.75 305.004 617.659 299.009 617.659C291.112 617.659 284.038 615.926 277.788 612.46C271.566 608.966 266.651 603.881 263.043 597.205C259.435 590.528 257.631 582.403 257.631 572.83C257.631 563.227 259.464 555.088 263.129 548.412C266.793 541.736 271.751 536.665 278.001 533.199C284.251 529.733 291.254 528 299.009 528C304.293 528 309.18 528.739 313.668 530.216C318.157 531.665 322.106 533.795 325.515 536.608C328.924 539.392 331.694 542.815 333.825 546.878C335.955 550.94 337.276 555.585 337.788 560.812Z" fill="#6B6B6B"/>
<path d="M349.858 616.466V529.193H385.909C392.443 529.193 398.082 530.372 402.827 532.73C407.599 535.06 411.278 538.412 413.864 542.787C416.449 547.134 417.741 552.29 417.741 558.256C417.741 564.307 416.42 569.449 413.778 573.682C411.136 577.886 407.386 581.097 402.528 583.312C397.67 585.5 391.918 586.594 385.27 586.594H362.472V569.974H381.349C384.531 569.974 387.187 569.563 389.318 568.739C391.477 567.886 393.111 566.608 394.219 564.903C395.327 563.17 395.881 560.955 395.881 558.256C395.881 555.557 395.327 553.327 394.219 551.565C393.111 549.776 391.477 548.44 389.318 547.56C387.159 546.651 384.503 546.196 381.349 546.196H370.952V616.466H349.858ZM398.991 576.58L420.724 616.466H397.713L376.406 576.58H398.991Z" fill="#6B6B6B"/>
<path d="M511.683 572.83C511.683 582.432 509.837 590.571 506.143 597.247C502.45 603.923 497.45 608.994 491.143 612.46C484.865 615.926 477.82 617.659 470.007 617.659C462.166 617.659 455.107 615.912 448.828 612.418C442.55 608.923 437.564 603.852 433.871 597.205C430.206 590.528 428.374 582.403 428.374 572.83C428.374 563.227 430.206 555.088 433.871 548.412C437.564 541.736 442.55 536.665 448.828 533.199C455.107 529.733 462.166 528 470.007 528C477.82 528 484.865 529.733 491.143 533.199C497.45 536.665 502.45 541.736 506.143 548.412C509.837 555.088 511.683 563.227 511.683 572.83ZM490.121 572.83C490.121 567.148 489.311 562.347 487.692 558.426C486.101 554.506 483.8 551.537 480.788 549.52C477.805 547.503 474.212 546.494 470.007 546.494C465.831 546.494 462.237 547.503 459.226 549.52C456.214 551.537 453.899 554.506 452.28 558.426C450.689 562.347 449.893 567.148 449.893 572.83C449.893 578.511 450.689 583.313 452.28 587.233C453.899 591.153 456.214 594.122 459.226 596.139C462.237 598.156 465.831 599.165 470.007 599.165C474.212 599.165 477.805 598.156 480.788 596.139C483.8 594.122 486.101 591.153 487.692 587.233C489.311 583.313 490.121 578.511 490.121 572.83Z" fill="#6B6B6B"/>
<path d="M603.217 560.812H581.911C581.626 558.625 581.044 556.651 580.163 554.889C579.283 553.128 578.118 551.622 576.669 550.372C575.22 549.122 573.501 548.17 571.513 547.517C569.553 546.835 567.379 546.494 564.993 546.494C560.76 546.494 557.109 547.531 554.041 549.605C551.001 551.679 548.658 554.676 547.01 558.597C545.391 562.517 544.581 567.261 544.581 572.83C544.581 578.625 545.405 583.483 547.053 587.403C548.729 591.295 551.072 594.236 554.084 596.224C557.124 598.185 560.717 599.165 564.865 599.165C567.195 599.165 569.311 598.866 571.214 598.27C573.146 597.673 574.837 596.807 576.286 595.67C577.763 594.506 578.97 593.099 579.908 591.452C580.874 589.776 581.541 587.886 581.911 585.784L603.217 585.912C602.848 589.776 601.726 593.582 599.851 597.332C598.004 601.082 595.462 604.506 592.223 607.602C588.984 610.67 585.035 613.114 580.376 614.932C575.746 616.75 570.433 617.659 564.439 617.659C556.541 617.659 549.467 615.926 543.217 612.46C536.996 608.966 532.081 603.881 528.473 597.205C524.865 590.528 523.061 582.403 523.061 572.83C523.061 563.227 524.893 555.088 528.558 548.412C532.223 541.736 537.18 536.665 543.43 533.199C549.68 529.733 556.683 528 564.439 528C569.723 528 574.609 528.739 579.098 530.216C583.587 531.665 587.535 533.795 590.945 536.608C594.354 539.392 597.124 542.815 599.254 546.878C601.385 550.94 602.706 555.585 603.217 560.812Z" fill="#6B6B6B"/>
<path d="M697.66 572.83C697.66 582.432 695.813 590.571 692.12 597.247C688.427 603.923 683.427 608.994 677.12 612.46C670.842 615.926 663.796 617.659 655.984 617.659C648.143 617.659 641.083 615.912 634.805 612.418C628.526 608.923 623.54 603.852 619.847 597.205C616.183 590.528 614.35 582.403 614.35 572.83C614.35 563.227 616.183 555.088 619.847 548.412C623.54 541.736 628.526 536.665 634.805 533.199C641.083 529.733 648.143 528 655.984 528C663.796 528 670.842 529.733 677.12 533.199C683.427 536.665 688.427 541.736 692.12 548.412C695.813 555.088 697.66 563.227 697.66 572.83ZM676.097 572.83C676.097 567.148 675.288 562.347 673.668 558.426C672.077 554.506 669.776 551.537 666.765 549.52C663.782 547.503 660.188 546.494 655.984 546.494C651.808 546.494 648.214 547.503 645.202 549.52C642.191 551.537 639.876 554.506 638.256 558.426C636.665 562.347 635.87 567.148 635.87 572.83C635.87 578.511 636.665 583.313 638.256 587.233C639.876 591.153 642.191 594.122 645.202 596.139C648.214 598.156 651.808 599.165 655.984 599.165C660.188 599.165 663.782 598.156 666.765 596.139C669.776 594.122 672.077 591.153 673.668 587.233C675.288 583.313 676.097 578.511 676.097 572.83Z" fill="#6B6B6B"/>
<path d="M709.975 616.466V529.193H746.026C752.56 529.193 758.2 530.372 762.944 532.73C767.717 535.06 771.396 538.412 773.981 542.787C776.566 547.134 777.859 552.29 777.859 558.256C777.859 564.307 776.538 569.449 773.896 573.682C771.254 577.886 767.504 581.097 762.646 583.312C757.788 585.5 752.035 586.594 745.387 586.594H722.589V569.974H741.467C744.648 569.974 747.305 569.563 749.435 568.739C751.594 567.886 753.228 566.608 754.336 564.903C755.444 563.17 755.998 560.955 755.998 558.256C755.998 555.557 755.444 553.327 754.336 551.565C753.228 549.776 751.594 548.44 749.435 547.56C747.276 546.651 744.62 546.196 741.467 546.196H731.069V616.466H709.975ZM759.109 576.58L780.842 616.466H757.83L736.523 576.58H759.109Z" fill="#6B6B6B"/>
<path d="M789.428 616.466V529.193H850.281V546.324H810.522V564.222H847.17V581.395H810.522V599.335H850.281V616.466H789.428Z" fill="#6B6B6B"/>
</svg>
