<svg width="930" height="195" viewBox="0 0 930 195" fill="none" xmlns="http://www.w3.org/2000/svg">
<path d="M284.8 166.2C278.733 166.2 273.8 164.9 270 162.3C266.2 159.7 263.333 156.867 261.4 153.8C260.4 154.533 258.9 155.167 256.9 155.7C254.967 156.3 252.933 156.6 250.8 156.6C244.667 156.6 239.533 155.2 235.4 152.4C231.267 149.6 228.167 145.8 226.1 141C224.033 136.2 223 130.8 223 124.8V38.2C223 32.2 224.133 26.8 226.4 22C228.733 17.2 232.067 13.4 236.4 10.6C240.733 7.79999 245.867 6.39999 251.8 6.39999C257.8 6.39999 262.933 7.79999 267.2 10.6C271.533 13.4 274.833 17.2 277.1 22C279.433 26.8 280.6 32.2 280.6 38.2V124.8C280.6 128.733 280.067 132.367 279 135.7C278 138.967 276.833 141.4 275.5 143C276.367 144.4 277.6 145.5 279.2 146.3C280.8 147.1 282.667 147.6 284.8 147.8V166.2ZM251.8 135.6C254.467 135.6 256.333 134.533 257.4 132.4C258.467 130.2 259 127.667 259 124.8V38.2C259 35.4667 258.467 33 257.4 30.8C256.333 28.5333 254.467 27.4 251.8 27.4C249.2 27.4 247.333 28.5333 246.2 30.8C245.133 33 244.6 35.4667 244.6 38.2V124.8C244.6 127.667 245.167 130.2 246.3 132.4C247.433 134.533 249.267 135.6 251.8 135.6Z" fill="#6B6B6B"/>
<path d="M307.88 156.6C304.546 156.6 301.746 155.533 299.48 153.4C297.213 151.267 295.513 148.567 294.38 145.3C293.246 141.967 292.68 138.6 292.68 135.2V45.6H312.88V131.2C312.88 133.267 313.246 134.767 313.98 135.7C314.78 136.567 316.013 137 317.68 137C319.146 137 320.38 136.5 321.38 135.5C322.446 134.433 323.413 133.2 324.28 131.8V45.6H344.48V155H324.28V145.8C321.88 148.067 319.18 150.433 316.18 152.9C313.18 155.367 310.413 156.6 307.88 156.6Z" fill="#6B6B6B"/>
<path d="M370.098 156.6C365.432 156.6 361.398 154.233 357.998 149.5C354.598 144.767 352.898 137.533 352.898 127.8C352.898 118.4 354.898 110.833 358.898 105.1C362.965 99.3667 369.032 94.4 377.098 90.2C379.632 88.8667 381.765 87.6667 383.498 86.6C385.232 85.5333 386.298 84.5333 386.698 83.6V71.6C386.698 68.8667 386.365 66.5333 385.698 64.6C385.098 62.6 383.565 61.6 381.098 61.6C378.832 61.6 377.298 62.6667 376.498 64.8C375.698 66.8667 375.298 69.4667 375.298 72.6V77.8H355.098V73.2C355.098 67.2 356.265 62.0333 358.598 57.7C360.998 53.3 364.232 49.9333 368.298 47.6C372.432 45.2 377.098 44 382.298 44C387.298 44 391.632 45.1667 395.298 47.5C398.965 49.7667 401.798 52.9333 403.798 57C405.865 61 406.898 65.6 406.898 70.8V136C406.898 140.867 407.032 144.667 407.298 147.4C407.565 150.067 407.898 152.6 408.298 155H388.498C387.632 153.933 387.098 152.367 386.898 150.3C386.765 148.233 386.698 146.867 386.698 146.2H385.298C383.632 149.267 381.498 151.767 378.898 153.7C376.365 155.633 373.432 156.6 370.098 156.6ZM378.298 136.8C380.632 136.8 382.598 136 384.198 134.4C385.865 132.8 386.698 131.067 386.698 129.2V103.2C381.832 105.267 378.265 108.4 375.998 112.6C373.798 116.733 372.698 121.4 372.698 126.6C372.698 128.867 373.132 131.133 373.998 133.4C374.865 135.667 376.298 136.8 378.298 136.8Z" fill="#6B6B6B"/>
<path d="M418.266 155V45.6H438.466V54.8C440.866 52.4667 443.566 50.1 446.566 47.7C449.566 45.2333 452.332 44 454.866 44C458.199 44 460.999 45.0667 463.266 47.2C465.532 49.3333 467.232 52.0333 468.366 55.3C469.499 58.5667 470.066 61.9333 470.066 65.4V155H449.866V69.4C449.866 67.2667 449.499 65.7667 448.766 64.9C448.032 64.0333 446.799 63.6 445.066 63.6C443.599 63.6 442.332 64.1333 441.266 65.2C440.266 66.2 439.332 67.4 438.466 68.8V155H418.266Z" fill="#6B6B6B"/>
<path d="M508.212 156.6C501.879 156.6 497.046 155.2 493.712 152.4C490.379 149.6 488.079 145.6 486.812 140.4C485.612 135.2 485.013 129 485.013 121.8V63.8H474.812V45.6H485.013V18.6H505.212V45.6H519.112V63.8H505.212V124.7C505.212 128.967 505.846 132.133 507.112 134.2C508.379 136.2 510.446 137.2 513.312 137.2C514.579 137.2 515.679 137.1 516.612 136.9C517.612 136.7 518.413 136.467 519.013 136.2V154.7C517.679 155.233 516.212 155.667 514.612 156C513.079 156.4 510.946 156.6 508.212 156.6Z" fill="#6B6B6B"/>
<path d="M540.302 156.6C536.968 156.6 534.168 155.533 531.902 153.4C529.635 151.267 527.935 148.567 526.802 145.3C525.668 141.967 525.102 138.6 525.102 135.2V45.6H545.302V131.2C545.302 133.267 545.668 134.767 546.402 135.7C547.202 136.567 548.435 137 550.102 137C551.568 137 552.802 136.5 553.802 135.5C554.868 134.433 555.835 133.2 556.702 131.8V45.6H576.902V155H556.702V145.8C554.302 148.067 551.602 150.433 548.602 152.9C545.602 155.367 542.835 156.6 540.302 156.6Z" fill="#6B6B6B"/>
<path d="M586.82 155V45.6H607.02V54.8C610.287 51.8 613.254 49.2667 615.92 47.2C618.654 45.0667 621.287 44 623.82 44C627.42 44 630.32 45.2333 632.52 47.7C634.72 50.1667 636.354 53 637.42 56.2C640.287 53.2667 643.254 50.5 646.32 47.9C649.454 45.3 652.62 44 655.82 44C659.154 44 661.954 45.0667 664.22 47.2C666.487 49.3333 668.187 52.0333 669.32 55.3C670.454 58.5667 671.02 61.9333 671.02 65.4V155H652.02V69.4C652.02 67.2667 651.487 65.7667 650.42 64.9C649.42 64.0333 648.154 63.6 646.62 63.6C645.087 63.6 643.62 64.2 642.22 65.4C640.82 66.5333 639.754 67.6667 639.02 68.8V155H620.02V69.4C620.02 67.2667 619.487 65.7667 618.42 64.9C617.42 64.0333 616.154 63.6 614.62 63.6C613.087 63.6 611.62 64.2 610.22 65.4C608.82 66.5333 607.754 67.6667 607.02 68.8V155H586.82Z" fill="#6B6B6B"/>
<path d="M683.961 155V8H733.361V30.2H705.561V69.8H725.561V91.4H705.561V132.8H733.361V155H683.961Z" fill="#6B6B6B"/>
<path d="M760.991 156.6C757.657 156.6 754.824 155.567 752.491 153.5C750.157 151.433 748.391 148.767 747.191 145.5C745.991 142.167 745.391 138.733 745.391 135.2V65.4C745.391 61.8667 745.957 58.4667 747.091 55.2C748.291 51.9333 750.057 49.2667 752.391 47.2C754.724 45.0667 757.591 44 760.991 44C763.524 44 766.191 44.8667 768.991 46.6C771.791 48.3333 774.457 50.4 776.991 52.8V8H797.191V155H776.991V147.8C774.324 150.133 771.691 152.2 769.091 154C766.491 155.733 763.791 156.6 760.991 156.6ZM770.591 137.6C772.124 137.6 773.557 136.967 774.891 135.7C776.291 134.433 776.991 132.867 776.991 131V69.6C776.991 68 776.291 66.5 774.891 65.1C773.557 63.7 772.124 63 770.591 63C769.124 63 767.924 63.6333 766.991 64.9C766.057 66.1 765.591 67.6667 765.591 69.6V131C765.591 132.867 766.057 134.433 766.991 135.7C767.924 136.967 769.124 137.6 770.591 137.6Z" fill="#6B6B6B"/>
<path d="M839.353 194.2C833.686 194.2 828.386 193.567 823.453 192.3C818.52 191.033 814.52 188.967 811.453 186.1C808.453 183.3 806.953 179.6 806.953 175C806.953 171.467 807.92 168.4 809.853 165.8C811.853 163.2 814.12 161.067 816.653 159.4C819.186 157.8 821.22 156.8 822.753 156.4C819.486 155.467 816.62 153.867 814.153 151.6C811.753 149.333 810.553 146.067 810.553 141.8C810.553 137.667 811.886 134.3 814.553 131.7C817.22 129.1 820.086 127 823.153 125.4C819.486 123 816.62 119.867 814.553 116C812.553 112.067 811.553 107.267 811.553 101.6V71.8C811.553 63.6 813.82 56.9333 818.353 51.8C822.953 46.6 829.22 44 837.153 44C842.286 44 846.453 45 849.653 47C852.92 48.9333 855.486 51.2667 857.353 54C859.286 50.7333 861.886 48.2667 865.153 46.6C868.42 44.8667 871.353 44 873.953 44V62C871.286 62 868.953 62.2333 866.953 62.7C864.953 63.1 863.353 63.6667 862.153 64.4C862.353 64.8667 862.553 65.8333 862.753 67.3C863.02 68.7667 863.153 70.0667 863.153 71.2V102.2C863.153 109.933 860.786 116.367 856.053 121.5C851.32 126.633 845.02 129.2 837.153 129.2C835.286 129.2 834.02 129.133 833.353 129C832.486 129.8 831.786 130.6 831.253 131.4C830.786 132.2 830.553 133.067 830.553 134C830.553 136.133 831.753 137.667 834.153 138.6C836.62 139.467 839.886 140.2 843.953 140.8C852.553 142.067 859.52 144.567 864.853 148.3C870.253 152.033 872.953 158 872.953 166.2C872.953 172.6 871.32 177.867 868.053 182C864.853 186.133 860.686 189.2 855.553 191.2C850.42 193.2 845.02 194.2 839.353 194.2ZM839.753 177.2C843.086 177.2 845.986 176.6 848.453 175.4C850.92 174.2 852.153 172.333 852.153 169.8C852.153 167.267 851.386 165.533 849.853 164.6C848.386 163.733 845.886 162.867 842.353 162L833.953 160C831.886 161.2 830.12 162.567 828.653 164.1C827.253 165.633 826.553 167.467 826.553 169.6C826.553 171.667 827.586 173.433 829.653 174.9C831.72 176.433 835.086 177.2 839.753 177.2ZM837.353 112.4C839.486 112.4 841.02 111.667 841.953 110.2C842.886 108.733 843.353 106.533 843.353 103.6V71.6C843.353 68.9333 842.92 66.7667 842.053 65.1C841.186 63.4333 839.62 62.6 837.353 62.6C835.086 62.6 833.52 63.4667 832.653 65.2C831.786 66.9333 831.353 69.0667 831.353 71.6V103.6C831.353 106.533 831.82 108.733 832.753 110.2C833.686 111.667 835.22 112.4 837.353 112.4Z" fill="#6B6B6B"/>
<path d="M903.422 156.6C895.355 156.6 888.989 153.833 884.322 148.3C879.722 142.7 877.422 135.867 877.422 127.8V72.8C877.422 64.2667 879.722 57.3333 884.322 52C888.922 46.6667 895.355 44 903.622 44C909.022 44 913.655 45.2333 917.522 47.7C921.455 50.1667 924.455 53.5333 926.522 57.8C928.589 62 929.622 66.8 929.622 72.2V104H896.222V127.8C896.222 130.533 896.822 133.067 898.022 135.4C899.289 137.667 901.155 138.8 903.622 138.8C906.222 138.8 908.055 137.733 909.122 135.6C910.255 133.467 910.822 130.867 910.822 127.8V115.8H929.622V128.4C929.622 136.867 927.322 143.7 922.722 148.9C918.189 154.033 911.755 156.6 903.422 156.6ZM896.222 88.2H910.822V72.8C910.822 69.8 910.289 67.2 909.222 65C908.222 62.7333 906.355 61.6 903.622 61.6C901.089 61.6 899.222 62.7667 898.022 65.1C896.822 67.3667 896.222 69.9333 896.222 72.8V88.2Z" fill="#6B6B6B"/>
<path d="M28.6661 57.3339C12.8404 57.3339 0 44.4984 0 28.6661C0 12.8338 12.8404 0 28.6661 0C44.4968 0 57.3322 12.8355 57.3322 28.6661C57.3322 44.4968 70.1693 57.3339 86 57.3339C101.831 57.3339 114.666 44.4984 114.666 28.6678C114.666 12.8371 127.503 0 143.334 0C159.165 0 172 12.8355 172 28.6661C172 44.4968 159.165 57.3322 143.334 57.3322C95.832 57.3322 57.3339 95.8468 57.3339 143.331C57.3339 159.153 44.4984 171.997 28.6678 171.997C12.8371 171.997 0 159.165 0 143.334C0 127.503 12.8355 114.666 28.6661 114.666C44.4968 114.666 57.329 101.831 57.329 86C57.329 70.1693 44.4984 57.3339 28.6661 57.3339Z" fill="#6B6B6B"/>
<path d="M78.8335 125.415C78.8335 99.6736 99.6851 78.8318 125.418 78.8318C151.152 78.8335 172 99.6736 172 125.415C172 151.145 151.152 172 125.415 172C99.6818 172 78.8335 151.145 78.8335 125.415Z" fill="#6B6B6B"/>
</svg>
