<svg width="1131" height="473" viewBox="0 0 1131 473" fill="none" xmlns="http://www.w3.org/2000/svg">
<path d="M71.6797 268.363H104.492L178.32 421H145.801L133.594 395.316H44.4336L32.6172 421H0L71.6797 268.363ZM121.387 369.828L88.3789 300.492L56.25 369.828H121.387Z" fill="#6B6B6B"/>
<path d="M192.969 362.992C192.969 355.18 194.564 347.725 197.754 340.629C200.944 333.467 205.534 327.152 211.523 321.684C217.513 316.215 224.837 311.853 233.496 308.598C242.22 305.342 252.116 303.715 263.184 303.715C274.186 303.715 284.082 305.375 292.871 308.695C301.725 311.951 309.212 316.443 315.332 322.172C321.517 327.901 326.237 334.639 329.492 342.387C332.812 350.134 334.473 358.435 334.473 367.289C334.473 368.396 334.44 369.6 334.375 370.902C334.375 372.139 334.31 373.279 334.18 374.32H225.195C226.432 377.771 228.418 380.928 231.152 383.793C233.952 386.658 237.435 389.132 241.602 391.215C245.768 393.298 250.586 394.926 256.055 396.098C261.523 397.204 267.578 397.758 274.219 397.758C280.859 397.758 287.467 397.074 294.043 395.707C300.618 394.275 306.901 392.484 312.891 390.336L322.656 412.406C318.88 414.164 315.039 415.727 311.133 417.094C307.292 418.396 303.255 419.503 299.023 420.414C294.857 421.26 290.462 421.911 285.84 422.367C281.283 422.823 276.465 423.051 271.387 423.051C258.431 423.051 247.07 421.488 237.305 418.363C227.539 415.238 219.368 410.974 212.793 405.57C206.217 400.167 201.27 393.819 197.949 386.527C194.629 379.236 192.969 371.391 192.969 362.992ZM303.809 351.762C302.767 348.572 301.139 345.609 298.926 342.875C296.777 340.076 294.076 337.667 290.82 335.648C287.565 333.565 283.789 331.938 279.492 330.766C275.195 329.594 270.475 329.008 265.332 329.008C259.863 329.008 254.883 329.626 250.391 330.863C245.898 332.1 241.96 333.76 238.574 335.844C235.189 337.927 232.357 340.336 230.078 343.07C227.865 345.805 226.237 348.702 225.195 351.762H303.809Z" fill="#6B6B6B"/>
<path d="M365.625 305.766H394.531V322.367C400.911 317.615 407.65 313.513 414.746 310.062C421.842 306.612 428.906 303.975 435.938 302.152L444.434 328.617C433.301 329.724 423.503 332.23 415.039 336.137C406.641 339.978 399.805 345.414 394.531 352.445V421H365.625V305.766Z" fill="#6B6B6B"/>
<path d="M459.082 363.383C459.082 355.115 460.742 347.367 464.062 340.141C467.448 332.914 472.233 326.599 478.418 321.195C484.668 315.792 492.188 311.527 500.977 308.402C509.831 305.277 519.759 303.715 530.762 303.715C541.764 303.715 551.66 305.277 560.449 308.402C569.303 311.527 576.823 315.792 583.008 321.195C589.258 326.599 594.043 332.914 597.363 340.141C600.749 347.367 602.441 355.115 602.441 363.383C602.441 371.651 600.749 379.398 597.363 386.625C594.043 393.852 589.258 400.167 583.008 405.57C576.823 410.974 569.303 415.238 560.449 418.363C551.66 421.488 541.764 423.051 530.762 423.051C519.759 423.051 509.831 421.488 500.977 418.363C492.188 415.238 484.668 410.974 478.418 405.57C472.233 400.167 467.448 393.852 464.062 386.625C460.742 379.398 459.082 371.651 459.082 363.383ZM489.453 363.383C489.453 368.005 490.365 372.4 492.188 376.566C494.076 380.668 496.777 384.314 500.293 387.504C503.874 390.629 508.203 393.135 513.281 395.023C518.424 396.846 524.251 397.758 530.762 397.758C537.272 397.758 543.066 396.846 548.145 395.023C553.288 393.135 557.617 390.629 561.133 387.504C564.714 384.314 567.415 380.668 569.238 376.566C571.126 372.4 572.07 368.005 572.07 363.383C572.07 358.76 571.126 354.366 569.238 350.199C567.415 346.033 564.714 342.387 561.133 339.262C557.617 336.072 553.288 333.565 548.145 331.742C543.066 329.854 537.272 328.91 530.762 328.91C524.251 328.91 518.424 329.854 513.281 331.742C508.203 333.565 503.874 336.072 500.293 339.262C496.777 342.387 494.076 346.033 492.188 350.199C490.365 354.366 489.453 358.76 489.453 363.383Z" fill="#6B6B6B"/>
<path d="M642.383 375.59C647.917 378.715 653.516 381.547 659.18 384.086C664.909 386.56 670.833 388.676 676.953 390.434C683.073 392.126 689.486 393.428 696.191 394.34C702.962 395.251 710.156 395.707 717.773 395.707C726.953 395.707 734.766 395.121 741.211 393.949C747.656 392.712 752.897 391.052 756.934 388.969C761.035 386.82 763.997 384.281 765.82 381.352C767.708 378.422 768.652 375.232 768.652 371.781C768.652 366.247 766.341 361.885 761.719 358.695C757.096 355.44 749.967 353.812 740.332 353.812C736.1 353.812 731.641 354.105 726.953 354.691C722.266 355.212 717.513 355.798 712.695 356.449C707.943 357.1 703.223 357.719 698.535 358.305C693.913 358.826 689.551 359.086 685.449 359.086C678.613 359.086 672.038 358.207 665.723 356.449C659.473 354.691 653.906 352.055 649.023 348.539C644.206 345.023 640.365 340.629 637.5 335.355C634.635 330.082 633.203 323.93 633.203 316.898C633.203 312.732 633.757 308.598 634.863 304.496C636.035 300.395 637.858 296.488 640.332 292.777C642.871 289.001 646.126 285.518 650.098 282.328C654.069 279.073 658.854 276.273 664.453 273.93C670.117 271.586 676.628 269.763 683.984 268.461C691.406 267.094 699.837 266.41 709.277 266.41C716.113 266.41 722.982 266.801 729.883 267.582C736.784 268.298 743.49 269.34 750 270.707C756.576 272.074 762.891 273.734 768.945 275.688C775 277.576 780.632 279.691 785.84 282.035L772.266 307.035C767.969 305.147 763.346 303.422 758.398 301.859C753.451 300.232 748.275 298.832 742.871 297.66C737.467 296.488 731.868 295.577 726.074 294.926C720.345 294.21 714.486 293.852 708.496 293.852C699.967 293.852 692.936 294.47 687.402 295.707C681.934 296.944 677.572 298.539 674.316 300.492C671.061 302.38 668.783 304.529 667.48 306.938C666.243 309.281 665.625 311.625 665.625 313.969C665.625 318.526 667.676 322.27 671.777 325.199C675.879 328.064 682.129 329.496 690.527 329.496C693.913 329.496 697.786 329.268 702.148 328.812C706.576 328.292 711.198 327.738 716.016 327.152C720.898 326.566 725.846 326.046 730.859 325.59C735.938 325.069 740.853 324.809 745.605 324.809C754.59 324.809 762.533 325.818 769.434 327.836C776.4 329.854 782.227 332.751 786.914 336.527C791.602 340.238 795.15 344.763 797.559 350.102C799.967 355.375 801.172 361.299 801.172 367.875C801.172 376.664 799.121 384.509 795.02 391.41C790.983 398.246 785.189 404.04 777.637 408.793C770.15 413.48 761.1 417.061 750.488 419.535C739.876 421.944 728.06 423.148 715.039 423.148C706.445 423.148 698.047 422.595 689.844 421.488C681.641 420.447 673.763 418.949 666.211 416.996C658.724 414.978 651.562 412.602 644.727 409.867C637.956 407.068 631.673 404.008 625.879 400.688L642.383 375.59Z" fill="#6B6B6B"/>
<path d="M845.41 435.453C848.405 437.406 851.66 439.132 855.176 440.629C858.691 442.126 862.337 443.363 866.113 444.34C869.954 445.316 873.861 446.033 877.832 446.488C881.803 447.009 885.742 447.27 889.648 447.27C902.93 447.27 913.151 444.405 920.312 438.676C927.539 433.012 931.152 424.483 931.152 413.09V409.184C928.613 410.941 925.749 412.569 922.559 414.066C919.434 415.499 916.048 416.736 912.402 417.777C908.822 418.819 905.013 419.633 900.977 420.219C897.005 420.74 892.969 421 888.867 421C880.078 421 872.201 419.73 865.234 417.191C858.333 414.587 852.474 410.811 847.656 405.863C842.904 400.85 839.258 394.698 836.719 387.406C834.18 380.115 832.91 371.781 832.91 362.406V305.766H861.719V354.398C861.719 368.331 864.355 378.617 869.629 385.258C874.967 391.833 883.366 395.121 894.824 395.121C902.897 395.121 910.026 393.721 916.211 390.922C922.461 388.057 927.441 384.411 931.152 379.984V305.766H960.059V407.816C960.059 418.819 958.496 428.357 955.371 436.43C952.246 444.568 947.689 451.306 941.699 456.645C935.775 461.983 928.483 465.954 919.824 468.559C911.165 471.228 901.335 472.562 890.332 472.562C879.59 472.562 869.564 471.423 860.254 469.145C850.944 466.866 842.415 463.773 834.668 459.867L845.41 435.453Z" fill="#6B6B6B"/>
<path d="M997.461 305.766H1026.37V315.531C1034.05 311.169 1041.37 308.109 1048.34 306.352C1055.37 304.594 1062.24 303.715 1068.95 303.715C1077.73 303.715 1085.87 305.017 1093.36 307.621C1100.85 310.16 1107.32 313.969 1112.79 319.047C1118.26 324.125 1122.53 330.473 1125.59 338.09C1128.71 345.642 1130.27 354.398 1130.27 364.359V421H1101.46V369.047C1101.46 362.732 1100.55 357.1 1098.73 352.152C1096.97 347.139 1094.4 342.94 1091.02 339.555C1087.7 336.104 1083.63 333.5 1078.81 331.742C1074.06 329.919 1068.72 329.008 1062.79 329.008C1059.67 329.008 1056.45 329.333 1053.12 329.984C1049.87 330.635 1046.65 331.579 1043.46 332.816C1040.33 333.988 1037.3 335.486 1034.38 337.309C1031.45 339.066 1028.78 341.085 1026.37 343.363V421H997.461V305.766Z" fill="#6B6B6B"/>
<path d="M641.156 42.6954C634.734 42.6954 629.509 47.9334 629.509 54.3721V197.704C630.097 213.199 652.263 213.144 652.846 197.704V54.3721C652.846 47.9338 647.602 42.6954 641.156 42.6954Z" fill="#6B6B6B"/>
<path d="M564.949 42.6954C558.503 42.6954 553.258 47.9334 553.258 54.3721V197.704C553.847 213.178 576.057 213.165 576.641 197.704V54.3721C576.641 47.9338 571.396 42.6954 564.949 42.6954Z" fill="#6B6B6B"/>
<path d="M603.052 85.3908C596.63 85.3908 591.406 90.6287 591.406 97.0675V155.009C591.994 170.505 614.16 170.448 614.743 155.009V97.0675C614.743 90.6287 609.499 85.3908 603.052 85.3908Z" fill="#6B6B6B"/>
<path d="M679.258 106.739C672.837 106.739 667.612 111.977 667.612 118.416V133.661C668.2 149.157 690.365 149.101 690.949 133.661V118.416C690.949 111.977 685.705 106.739 679.258 106.739Z" fill="#6B6B6B"/>
<path d="M450.641 106.739C444.194 106.739 438.949 111.977 438.949 118.415V133.661C439.539 149.111 461.705 149.145 462.286 133.661V118.415C462.286 111.977 457.062 106.739 450.641 106.739Z" fill="#6B6B6B"/>
<path d="M488.743 64.0431C482.297 64.0431 477.052 69.2811 477.052 75.7198V176.356C477.642 191.808 499.808 191.84 500.39 176.356V75.7198C500.39 69.2811 495.165 64.0431 488.743 64.0431Z" fill="#6B6B6B"/>
<path d="M526.846 0C520.4 0 515.156 5.23797 515.156 11.6767V240.399C515.745 255.85 537.91 255.883 538.493 240.399V11.6767C538.493 5.23797 533.268 0 526.846 0Z" fill="#6B6B6B"/>
</svg>
