<svg width="1150" height="277" viewBox="0 0 1150 277" fill="none" xmlns="http://www.w3.org/2000/svg">
<path d="M180.25 157.097V128.545H303.19V157.097H259.085V274H224.426V157.097H180.25Z" fill="#6B6B6B"/>
<path d="M355.534 276.06C344.123 276.06 334.275 273.811 325.989 269.312C317.75 264.767 311.405 258.304 306.955 249.923C302.551 241.495 300.349 231.481 300.349 219.881C300.349 208.612 302.575 198.763 307.026 190.335C311.476 181.86 317.75 175.278 325.847 170.591C333.943 165.856 343.484 163.489 354.469 163.489C362.234 163.489 369.336 164.696 375.776 167.111C382.215 169.526 387.778 173.1 392.466 177.835C397.153 182.57 400.799 188.418 403.403 195.378C406.008 202.291 407.31 210.222 407.31 219.17V227.835H312.494V207.665H374.994C374.947 203.972 374.071 200.681 372.366 197.793C370.662 194.904 368.318 192.655 365.335 191.045C362.4 189.388 359.014 188.56 355.179 188.56C351.296 188.56 347.816 189.436 344.739 191.188C341.661 192.892 339.223 195.236 337.423 198.219C335.624 201.154 334.677 204.492 334.582 208.233V228.759C334.582 233.209 335.458 237.116 337.21 240.477C338.962 243.792 341.448 246.372 344.668 248.219C347.887 250.065 351.723 250.989 356.173 250.989C359.251 250.989 362.045 250.562 364.554 249.71C367.063 248.858 369.218 247.603 371.017 245.946C372.816 244.289 374.166 242.253 375.065 239.838L406.955 240.761C405.629 247.911 402.717 254.137 398.219 259.44C393.768 264.696 387.92 268.792 380.676 271.727C373.432 274.616 365.051 276.06 355.534 276.06Z" fill="#6B6B6B"/>
<path d="M475.971 276.06C464.465 276.06 454.593 273.692 446.354 268.957C438.163 264.223 431.866 257.641 427.462 249.213C423.059 240.738 420.857 230.937 420.857 219.81C420.857 208.635 423.059 198.834 427.462 190.406C431.913 181.931 438.234 175.326 446.425 170.591C454.664 165.856 464.489 163.489 475.9 163.489C485.985 163.489 494.768 165.312 502.249 168.957C509.778 172.603 515.649 177.764 519.863 184.44C524.124 191.069 526.373 198.858 526.61 207.807H494.153C493.49 202.22 491.596 197.84 488.471 194.668C485.393 191.495 481.369 189.909 476.397 189.909C472.372 189.909 468.845 191.045 465.815 193.318C462.784 195.544 460.417 198.858 458.712 203.261C457.055 207.617 456.227 213.015 456.227 219.455C456.227 225.894 457.055 231.339 458.712 235.79C460.417 240.193 462.784 243.531 465.815 245.804C468.845 248.029 472.372 249.142 476.397 249.142C479.617 249.142 482.458 248.455 484.92 247.082C487.429 245.709 489.489 243.697 491.099 241.045C492.709 238.347 493.727 235.08 494.153 231.244H526.61C526.279 240.241 524.03 248.1 519.863 254.824C515.744 261.547 509.943 266.779 502.462 270.52C495.029 274.213 486.198 276.06 475.971 276.06Z" fill="#6B6B6B"/>
<path d="M579.114 211.784V274H544.384V128.545H577.977V184.938H579.185C581.647 178.214 585.671 172.958 591.259 169.17C596.893 165.383 603.782 163.489 611.926 163.489C619.597 163.489 626.273 165.193 631.955 168.602C637.636 171.964 642.04 176.723 645.165 182.878C648.337 189.033 649.9 196.23 649.852 204.469V274H615.122V211.287C615.17 205.226 613.654 200.491 610.577 197.082C607.499 193.673 603.167 191.969 597.58 191.969C593.934 191.969 590.714 192.774 587.92 194.384C585.174 195.946 583.02 198.195 581.457 201.131C579.942 204.066 579.161 207.617 579.114 211.784Z" fill="#6B6B6B"/>
<path d="M795.325 128.545V274H765.495L707.612 190.051H706.688V274H671.532V128.545H701.788L759.032 212.352H760.239V128.545H795.325Z" fill="#6B6B6B"/>
<path d="M868.354 276.06C856.895 276.06 847.047 273.716 838.808 269.028C830.617 264.294 824.296 257.712 819.845 249.284C815.442 240.809 813.24 230.984 813.24 219.81C813.24 208.588 815.442 198.763 819.845 190.335C824.296 181.86 830.617 175.278 838.808 170.591C847.047 165.856 856.895 163.489 868.354 163.489C879.812 163.489 889.637 165.856 897.828 170.591C906.067 175.278 912.388 181.86 916.791 190.335C921.242 198.763 923.467 208.588 923.467 219.81C923.467 230.984 921.242 240.809 916.791 249.284C912.388 257.712 906.067 264.294 897.828 269.028C889.637 273.716 879.812 276.06 868.354 276.06ZM868.567 249.852C872.733 249.852 876.261 248.574 879.149 246.017C882.037 243.46 884.239 239.909 885.754 235.364C887.317 230.818 888.098 225.562 888.098 219.597C888.098 213.536 887.317 208.233 885.754 203.688C884.239 199.142 882.037 195.591 879.149 193.034C876.261 190.477 872.733 189.199 868.567 189.199C864.258 189.199 860.612 190.477 857.629 193.034C854.694 195.591 852.445 199.142 850.882 203.688C849.367 208.233 848.609 213.536 848.609 219.597C848.609 225.562 849.367 230.818 850.882 235.364C852.445 239.909 854.694 243.46 857.629 246.017C860.612 248.574 864.258 249.852 868.567 249.852Z" fill="#6B6B6B"/>
<path d="M1043.57 164.909L1006.14 274H966.365L929.007 164.909H965.584L985.683 240.051H986.82L1006.99 164.909H1043.57Z" fill="#6B6B6B"/>
<path d="M1084.71 275.847C1077.75 275.847 1071.57 274.687 1066.17 272.366C1060.82 269.999 1056.58 266.448 1053.46 261.713C1050.38 256.931 1048.84 250.941 1048.84 243.744C1048.84 237.684 1049.91 232.57 1052.04 228.403C1054.17 224.237 1057.1 220.851 1060.84 218.247C1064.58 215.643 1068.89 213.678 1073.77 212.352C1078.65 210.979 1083.85 210.056 1089.39 209.582C1095.6 209.014 1100.59 208.422 1104.38 207.807C1108.17 207.144 1110.91 206.221 1112.62 205.037C1114.37 203.806 1115.25 202.078 1115.25 199.852V199.497C1115.25 195.851 1113.99 193.034 1111.48 191.045C1108.97 189.057 1105.59 188.062 1101.33 188.062C1096.73 188.062 1093.04 189.057 1090.25 191.045C1087.45 193.034 1085.68 195.78 1084.92 199.284L1052.89 198.148C1053.84 191.519 1056.27 185.6 1060.2 180.392C1064.18 175.136 1069.63 171.017 1076.54 168.034C1083.5 165.004 1091.86 163.489 1101.61 163.489C1108.57 163.489 1114.99 164.317 1120.86 165.974C1126.73 167.584 1131.84 169.952 1136.2 173.077C1140.55 176.154 1143.92 179.942 1146.28 184.44C1148.7 188.938 1149.91 194.076 1149.91 199.852V274H1117.24V258.801H1116.38C1114.44 262.494 1111.96 265.619 1108.93 268.176C1105.94 270.733 1102.41 272.651 1098.34 273.929C1094.32 275.207 1089.77 275.847 1084.71 275.847ZM1095.43 253.119C1099.17 253.119 1102.53 252.362 1105.52 250.847C1108.55 249.331 1110.96 247.248 1112.76 244.597C1114.56 241.898 1115.46 238.773 1115.46 235.222V224.852C1114.47 225.373 1113.26 225.847 1111.84 226.273C1110.46 226.699 1108.95 227.101 1107.29 227.48C1105.63 227.859 1103.93 228.19 1102.18 228.474C1100.43 228.759 1098.75 229.019 1097.14 229.256C1093.87 229.777 1091.08 230.581 1088.76 231.67C1086.48 232.759 1084.73 234.18 1083.5 235.932C1082.32 237.636 1081.72 239.672 1081.72 242.04C1081.72 245.638 1083 248.384 1085.56 250.278C1088.16 252.172 1091.45 253.119 1095.43 253.119Z" fill="#6B6B6B"/>
<path d="M22.798 114.156H0C0 202.432 71.4513 274 159.599 274V251.166C84.0407 251.166 22.798 189.824 22.798 114.156Z" fill="#6B6B6B"/>
<path d="M159.599 22.8344V0C96.6333 0 45.5993 51.1081 45.5993 114.156C45.5993 177.213 96.6333 228.334 159.599 228.334V205.5C109.226 205.5 68.4007 164.605 68.4007 114.159C68.4007 63.7291 109.225 22.8344 159.599 22.8344Z" fill="#6B6B6B"/>
<path d="M159.599 45.6656C121.815 45.6656 91.1987 76.326 91.1987 114.156C91.1987 151.995 121.815 182.666 159.599 182.666V159.834C134.407 159.834 114 139.384 114 114.166C114 88.947 134.407 68.5 159.599 68.5C184.795 68.5 205.202 88.947 205.202 114.166L228 114.156C228 76.326 197.387 45.6656 159.599 45.6656Z" fill="#6B6B6B"/>
</svg>
