<svg width="1498" height="524" viewBox="0 0 1498 524" fill="none" xmlns="http://www.w3.org/2000/svg">
<path d="M0 522V382H75C83 382 90.3333 383.933 97 387.8C103.8 391.533 109.2 396.667 113.2 403.2C117.2 409.733 119.2 417 119.2 425C119.2 433.267 117 440.8 112.6 447.6C108.333 454.4 102.667 459.8 95.6 463.8C88.5333 467.8 80.6667 469.8 72 469.8H21.6V522H0ZM21.6 449H70.6C75.2667 449 79.5333 447.933 83.4 445.8C87.4 443.533 90.5333 440.6 92.8 437C95.2 433.267 96.4 429.267 96.4 425C96.4 420.867 95.2 417.133 92.8 413.8C90.5333 410.467 87.4 407.8 83.4 405.8C79.5333 403.8 75.2667 402.8 70.6 402.8H21.6V449Z" fill="#6B6B6B"/>
<path d="M237.052 523.2C223.852 523.2 212.252 520.4 202.252 514.8C192.385 509.2 184.652 501.533 179.052 491.8C173.452 482.067 170.652 471 170.652 458.6V381.8H192.252V457.6C192.252 466.133 194.252 473.8 198.252 480.6C202.252 487.267 207.652 492.533 214.452 496.4C221.252 500.267 228.785 502.2 237.052 502.2C245.852 502.2 253.718 500.267 260.652 496.4C267.585 492.533 273.052 487.267 277.052 480.6C281.052 473.8 283.052 466.133 283.052 457.6V381.8H303.652V458.6C303.652 471 300.852 482.067 295.252 491.8C289.652 501.533 281.852 509.2 271.852 514.8C261.852 520.4 250.252 523.2 237.052 523.2Z" fill="#6B6B6B"/>
<path d="M364.648 522V382H386.248V501.2H472.048V522H364.648Z" fill="#6B6B6B"/>
<path d="M582.339 524C573.006 524 564.406 523 556.539 521C548.672 519 541.472 516 534.939 512C528.406 508 522.472 502.933 517.139 496.8L531.139 479C539.139 488.067 547.206 494.6 555.339 498.6C563.606 502.6 572.872 504.6 583.139 504.6C589.539 504.6 595.606 503.8 601.339 502.2C607.072 500.467 611.739 498 615.339 494.8C619.072 491.6 620.939 487.6 620.939 482.8C620.939 479.733 620.006 477.133 618.139 475C616.272 472.867 613.806 471.067 610.739 469.6C607.672 468.133 604.206 466.933 600.339 466C596.606 465.067 592.806 464.333 588.939 463.8C585.206 463.133 581.739 462.533 578.539 462C570.006 460.8 562.406 459.133 555.739 457C549.072 454.733 543.339 452 538.539 448.8C533.872 445.467 530.272 441.467 527.739 436.8C525.339 432.133 524.139 426.8 524.139 420.8C524.139 414.533 525.606 408.867 528.539 403.8C531.472 398.733 535.606 394.467 540.939 391C546.272 387.4 552.472 384.667 559.539 382.8C566.606 380.933 574.272 380 582.539 380C591.206 380 599.139 380.933 606.339 382.8C613.672 384.667 620.139 387.467 625.739 391.2C631.472 394.8 636.206 399.267 639.939 404.6L625.339 420.2C621.872 415.667 617.872 411.867 613.339 408.8C608.939 405.733 604.072 403.4 598.739 401.8C593.406 400.2 587.806 399.4 581.939 399.4C575.272 399.4 569.339 400.2 564.139 401.8C558.939 403.4 554.806 405.667 551.739 408.6C548.672 411.4 547.139 414.8 547.139 418.8C547.139 422.267 548.006 425.267 549.739 427.8C551.606 430.2 554.206 432.267 557.539 434C560.872 435.6 564.939 437 569.739 438.2C574.539 439.4 580.006 440.4 586.139 441.2C593.872 442.4 601.206 443.867 608.139 445.6C615.206 447.333 621.406 449.6 626.739 452.4C632.072 455.2 636.272 458.8 639.339 463.2C642.406 467.467 643.939 472.8 643.939 479.2C643.939 488.267 641.406 496.2 636.339 503C631.272 509.667 624.139 514.867 614.939 518.6C605.739 522.2 594.872 524 582.339 524Z" fill="#6B6B6B"/>
<path d="M697.07 522V382H805.47V402.8H718.67V501.2H805.47V522H697.07ZM708.47 460.6V439.8H794.47V460.6H708.47Z" fill="#6B6B6B"/>
<path d="M898.258 522V402.8H849.058V382H970.458V402.8H919.858V522H898.258Z" fill="#6B6B6B"/>
<path d="M1018.16 522V382H1126.56V402.8H1039.76V501.2H1126.56V522H1018.16ZM1029.56 460.6V439.8H1115.56V460.6H1029.56Z" fill="#6B6B6B"/>
<path d="M1251.75 524C1240.95 524 1230.88 522.333 1221.55 519C1212.22 515.533 1204.02 510.6 1196.95 504.2C1190.02 497.8 1184.62 490.2 1180.75 481.4C1176.88 472.467 1174.95 462.667 1174.95 452C1174.95 441.867 1176.95 432.467 1180.95 423.8C1185.08 415.133 1190.68 407.6 1197.75 401.2C1204.95 394.667 1213.22 389.667 1222.55 386.2C1231.88 382.6 1241.82 380.8 1252.35 380.8C1260.75 380.8 1268.82 381.933 1276.55 384.2C1284.28 386.467 1291.28 389.4 1297.55 393C1303.95 396.467 1309.08 400.267 1312.95 404.4L1299.55 421.8C1295.02 417.8 1290.22 414.333 1285.15 411.4C1280.22 408.467 1274.88 406.2 1269.15 404.6C1263.42 403 1257.28 402.2 1250.75 402.2C1243.82 402.2 1237.15 403.4 1230.75 405.8C1224.35 408.067 1218.55 411.4 1213.35 415.8C1208.28 420.067 1204.28 425.333 1201.35 431.6C1198.42 437.733 1196.95 444.533 1196.95 452C1196.95 460.133 1198.42 467.4 1201.35 473.8C1204.42 480.067 1208.62 485.333 1213.95 489.6C1219.28 493.867 1225.35 497.133 1232.15 499.4C1239.08 501.667 1246.35 502.8 1253.95 502.8C1260.88 502.8 1267.22 501.933 1272.95 500.2C1278.68 498.333 1283.82 496 1288.35 493.2C1293.02 490.267 1297.22 487.333 1300.95 484.4L1311.35 502.2C1307.88 505.4 1303.08 508.733 1296.95 512.2C1290.82 515.533 1283.88 518.333 1276.15 520.6C1268.42 522.867 1260.28 524 1251.75 524Z" fill="#6B6B6B"/>
<path d="M1476.25 522V382H1497.85V522H1476.25ZM1364.65 522V382H1386.25V522H1364.65ZM1374.05 463.2L1374.25 442.4H1485.85V463.2H1374.05Z" fill="#6B6B6B"/>
<path d="M670.301 277.96C614.675 277.326 585.052 235.852 585.403 175.578C585.649 110.269 612.215 46.2621 658.248 0L698.062 39.784C662.395 75.6248 641.838 125.161 641.627 175.789C641.803 225.642 664.046 229.233 704.633 213.425C693.142 184.802 693.986 148.468 707.444 106.396C714.297 84.8843 724.171 60.5562 745.22 43.3047C769.221 23.6239 809.596 17.85 835.635 42.2837C882.442 87.2431 838.622 176.317 798.422 216.453C827.342 214.27 847.442 195.223 864.274 166.424L913.4 193.815C883.707 251.59 810.053 298.134 742.092 258.173C720.692 269.229 693.318 278.242 670.301 277.995V277.96ZM793.151 82.3845C774.105 83.4408 766.866 106.537 760.998 123.542C756.289 138.329 750.667 161.495 753.829 181.105C774.14 161.671 789.531 137.026 797.087 110.198C800.917 95.552 801.514 81.4692 793.151 82.3845Z" fill="#6B6B6B"/>
</svg>
