<svg width="846" height="163" viewBox="0 0 846 163" fill="none" xmlns="http://www.w3.org/2000/svg">
<path d="M0.599976 161V12.4H24V142.4H82.4V161H0.599976Z" fill="#6B6B6B"/>
<path d="M132.572 162.6C125.305 162.6 119.439 161.467 114.972 159.2C110.505 156.933 107.105 153.7 104.772 149.5C102.439 145.233 100.839 140.167 99.9718 134.3C99.1718 128.433 98.7719 121.933 98.7719 114.8V49.6H121.772V114.6C121.772 123.4 122.439 129.867 123.772 134C125.172 138.133 127.305 140.8 130.172 142C133.105 143.2 136.905 143.8 141.572 143.8C144.305 143.8 147.205 143.4 150.272 142.6C153.405 141.733 156.339 140.733 159.072 139.6C161.805 138.4 163.972 137.267 165.572 136.2V49.6H188.572V162.6H177.972C174.905 162.6 172.472 162.133 170.672 161.2C168.872 160.333 167.972 158.067 167.972 154.4V146.6L168.372 151C165.372 153 161.839 154.9 157.772 156.7C153.772 158.433 149.572 159.867 145.172 161C140.772 162.067 136.572 162.6 132.572 162.6Z" fill="#6B6B6B"/>
<path d="M223.052 161V49.8H243.752L243.852 61.6C246.585 59.7333 249.985 57.7667 254.052 55.7C258.185 53.6333 262.652 51.8667 267.452 50.4C272.252 48.9333 277.052 48.1333 281.852 48C289.852 47.7333 296.285 48.9667 301.152 51.7C306.018 54.4333 309.552 59 311.752 65.4C314.018 71.8 315.152 80.4333 315.152 91.3V161H292.152V92.7C292.152 86.6333 291.618 81.7 290.552 77.9C289.552 74.0333 287.652 71.2333 284.852 69.5C282.052 67.7667 277.918 67.0333 272.452 67.3C268.985 67.3667 264.785 68.2333 259.852 69.9C254.985 71.5 250.385 73.9333 246.052 77.2V161H223.052ZM313.952 77.3L309.052 62.7C311.652 60.5 315.085 58.3 319.352 56.1C323.685 53.9 328.418 52.0333 333.552 50.5C338.752 48.9 343.985 48.0667 349.252 48C357.185 47.8667 363.652 49.1333 368.652 51.8C373.652 54.4667 377.318 59 379.652 65.4C382.052 71.7333 383.252 80.3333 383.252 91.2V161H360.152V92.7C360.152 86.6333 359.652 81.7 358.652 77.9C357.718 74.0333 355.852 71.2333 353.052 69.5C350.318 67.7667 346.185 67.0333 340.652 67.3C336.785 67.3667 332.385 68.3333 327.452 70.2C322.518 72 318.018 74.3667 313.952 77.3Z" fill="#6B6B6B"/>
<path d="M417.602 161V49.8H440.602V161H417.602ZM427.802 30.1C423.935 30.1 420.535 28.8667 417.602 26.4C414.735 23.9333 413.302 20.5667 413.302 16.3C413.302 13.3667 414.102 10.7333 415.702 8.4C417.368 6 419.468 4.1 422.002 2.7C424.535 1.23333 427.168 0.5 429.902 0.5C434.635 0.5 438.202 1.83333 440.602 4.5C443.002 7.16666 444.202 10.4333 444.202 14.3C444.202 18.9 442.535 22.7 439.202 25.7C435.935 28.6333 432.135 30.1 427.802 30.1Z" fill="#6B6B6B"/>
<path d="M462.586 161L511.286 80.8L512.586 89.8L462.986 12.4L489.186 12.2L513.186 51.6L526.786 74.5H521.886L535.286 51.6L558.086 12.4H582.986L535.286 90L532.586 80.8L583.986 161H557.486L531.786 117.6L518.886 96.4L525.286 96.2L512.786 117.6L487.586 161H462.586Z" fill="#6B6B6B"/>
<path d="M636.278 162.6C631.011 162.6 626.378 161.767 622.378 160.1C618.378 158.433 615.245 155.5 612.978 151.3C610.778 147.033 609.678 141 609.678 133.2V66.6H595.278V54.2C600.211 52.8 603.978 51.6333 606.578 50.7C609.178 49.7 611.078 47.6 612.278 44.4C612.811 42.9333 613.411 41.2 614.078 39.2C614.745 37.1333 615.478 34.8667 616.278 32.4C617.078 29.8667 617.945 27.1333 618.878 24.2H632.678V49.6H663.878V66.6H632.678V121C632.678 128.2 632.978 133.467 633.578 136.8C634.245 140.067 635.445 142.167 637.178 143.1C638.978 143.967 641.611 144.4 645.078 144.4C646.945 144.4 649.078 144.2 651.478 143.8C653.945 143.333 656.278 142.767 658.478 142.1C660.745 141.433 662.478 140.733 663.678 140L667.478 153.2C665.478 154.733 662.778 156.233 659.378 157.7C656.045 159.1 652.345 160.267 648.278 161.2C644.278 162.133 640.278 162.6 636.278 162.6Z" fill="#6B6B6B"/>
<path d="M709.648 79.2L708.248 64C709.248 61.9333 711.348 59.6667 714.548 57.2C717.748 54.6667 721.515 52.5 725.848 50.7C730.248 48.9 734.715 48 739.248 48C741.782 48 743.948 48.1 745.748 48.3C747.615 48.5 748.982 48.8667 749.848 49.4V71C748.848 70.4667 747.315 69.9 745.248 69.3C743.248 68.7 739.982 68.4 735.448 68.4C731.315 68.4 727.582 69 724.248 70.2C720.982 71.3333 718.115 72.7333 715.648 74.4C713.182 76.0667 711.182 77.6667 709.648 79.2ZM687.848 161V49.8H707.448L709.048 64L710.848 72.4V161H687.848Z" fill="#6B6B6B"/>
<path d="M793.006 162.6C786.34 162.6 780.406 161.3 775.206 158.7C770.073 156.033 766.006 152.3 763.006 147.5C760.073 142.633 758.606 136.9 758.606 130.3C758.606 123.167 760.506 117.133 764.306 112.2C768.173 107.2 773.34 103.3 779.806 100.5C784.073 98.7667 788.706 97.4 793.706 96.4C798.706 95.3333 803.706 94.6 808.706 94.2C813.706 93.7333 818.34 93.5 822.606 93.5L827.406 99.6L822.606 107.7C820.006 107.7 816.873 107.9 813.206 108.3C809.606 108.633 806.04 109.2 802.506 110C798.973 110.733 795.973 111.7 793.506 112.9C790.106 114.433 787.273 116.4 785.006 118.8C782.74 121.2 781.606 124.533 781.606 128.8C781.606 134.4 783.14 138.633 786.206 141.5C789.34 144.367 793.973 145.8 800.106 145.8C803.24 145.8 806.406 145.333 809.606 144.4C812.806 143.467 815.573 142.4 817.906 141.2C820.306 140 821.873 138.967 822.606 138.1L827.206 143L823.906 151.6C820.973 154.267 816.74 156.767 811.206 159.1C805.673 161.433 799.606 162.6 793.006 162.6ZM845.706 161H823.906V144.4H822.606V83C822.606 76.4667 820.873 72.1667 817.406 70.1C814.006 67.9667 809.14 66.9 802.806 66.9C798.606 66.9 794.273 67.3333 789.806 68.2C785.34 69 781.24 70.0333 777.506 71.3C773.773 72.5 770.906 73.7333 768.906 75L763.506 58.4C765.04 57.4667 767.973 56.1667 772.306 54.5C776.706 52.8333 781.806 51.3333 787.606 50C793.473 48.6 799.273 47.9 805.006 47.9C813.34 47.9 820.54 48.8667 826.606 50.8C832.74 52.7333 837.44 56.3333 840.706 61.6C844.04 66.8 845.706 74.3667 845.706 84.3V161Z" fill="#6B6B6B"/>
</svg>
