<svg width="956" height="139" viewBox="0 0 956 139" fill="none" xmlns="http://www.w3.org/2000/svg">
<path d="M254.691 20.1752H271.598V121H253.247L196.134 47.3917V121H179.021V20.1752H196.134L254.691 95.4329V20.1752Z" fill="#6B6B6B"/>
<path d="M368.796 89.6597H308.59C309.002 95.158 311.545 99.6253 316.219 103.062C320.892 106.498 326.322 108.216 332.507 108.216C342.267 108.216 349.552 105.192 354.363 99.1442L363.641 109.247C355.394 117.907 344.603 122.237 331.27 122.237C320.274 122.237 311.064 118.594 303.641 111.309C296.219 104.024 292.507 94.402 292.507 82.4432C292.507 70.7594 296.287 61.2748 303.847 53.9896C311.408 46.7044 320.548 43.0618 331.27 43.0618C341.992 43.0618 350.927 46.292 358.074 52.7525C365.222 59.213 368.796 67.804 368.796 78.5257V89.6597ZM352.713 76.8762C352.713 70.6906 350.72 65.8109 346.734 62.237C342.885 58.6631 337.868 56.8762 331.683 56.8762C325.497 56.8762 320.067 58.7319 315.394 62.4432C310.858 66.1545 308.59 70.9655 308.59 76.8762H352.713Z" fill="#6B6B6B"/>
<path d="M440.322 44.2989H456.61V121H440.322V106.979C437.71 111.653 434.067 115.364 429.394 118.113C424.858 120.862 419.978 122.237 414.755 122.237C405.958 122.237 398.947 119.557 393.724 114.196C388.5 108.835 385.889 101.206 385.889 91.3092V44.2989H401.971V86.3607C401.971 100.519 407.813 107.598 419.497 107.598C425.408 107.598 430.356 105.673 434.342 101.825C438.329 97.9758 440.322 92.615 440.322 85.7422V44.2989Z" fill="#6B6B6B"/>
<path d="M495.96 88.0102V121H479.878V44.2989H495.96V59.5566C498.572 54.7456 502.077 50.8281 506.476 47.804C511.012 44.78 515.754 43.1992 520.702 43.0618L520.909 59.3504H520.084C512.249 59.3504 506.269 61.8934 502.146 66.9793C498.022 72.0652 495.96 79.0755 495.96 88.0102Z" fill="#6B6B6B"/>
<path d="M572.362 107.804C579.372 107.804 585.145 105.467 589.681 100.794C594.355 96.1202 596.692 90.0721 596.692 82.6494C596.692 75.2267 594.355 69.1786 589.681 64.5051C585.145 59.8315 579.372 57.4947 572.362 57.4947C565.352 57.4947 559.578 59.8315 555.042 64.5051C550.506 69.1786 548.238 75.2267 548.238 82.6494C548.238 90.0721 550.506 96.0514 555.042 100.588C559.578 105.399 565.352 107.804 572.362 107.804ZM572.362 122.237C560.815 122.237 551.194 118.457 543.496 110.897C535.798 103.199 531.95 93.7834 531.95 82.6494C531.95 71.5154 535.798 62.1683 543.496 54.6081C551.194 46.9106 560.815 43.0618 572.362 43.0618C583.908 43.0618 593.53 46.9106 601.228 54.6081C608.925 62.1683 612.774 71.5154 612.774 82.6494C612.774 93.371 608.925 102.718 601.228 110.691C593.53 118.388 583.908 122.237 572.362 122.237Z" fill="#6B6B6B"/>
<path d="M703.214 71.9277H720.122V106.361C710.637 116.945 697.029 122.237 679.297 122.237C664.314 122.237 651.805 117.289 641.771 107.392C631.737 97.4947 626.72 85.1236 626.72 70.2783C626.72 55.4329 631.805 42.993 641.977 32.9587C652.287 22.7868 664.726 17.7009 679.297 17.7009C693.867 17.7009 705.964 21.8934 715.586 30.2782L706.513 43.2679C699.503 37.3573 690.912 34.402 680.74 34.402C670.431 34.402 661.771 37.7697 654.761 44.5051C647.888 51.103 644.452 59.6941 644.452 70.2783C644.452 80.8624 647.751 89.4535 654.348 96.0514C661.084 102.512 669.4 105.742 679.297 105.742C688.919 105.742 696.891 103.68 703.214 99.5566V71.9277Z" fill="#6B6B6B"/>
<path d="M811.765 89.6597H751.558C751.971 95.158 754.514 99.6253 759.187 103.062C763.861 106.498 769.29 108.216 775.476 108.216C785.235 108.216 792.521 105.192 797.332 99.1442L806.61 109.247C798.363 117.907 787.572 122.237 774.239 122.237C763.242 122.237 754.033 118.594 746.61 111.309C739.187 104.024 735.476 94.402 735.476 82.4432C735.476 70.7594 739.256 61.2748 746.816 53.9896C754.376 46.7044 763.517 43.0618 774.239 43.0618C784.961 43.0618 793.895 46.292 801.043 52.7525C808.191 59.213 811.765 67.804 811.765 78.5257V89.6597ZM795.682 76.8762C795.682 70.6906 793.689 65.8109 789.703 62.237C785.854 58.6631 780.837 56.8762 774.651 56.8762C768.466 56.8762 763.036 58.7319 758.363 62.4432C753.827 66.1545 751.558 70.9655 751.558 76.8762H795.682Z" fill="#6B6B6B"/>
<path d="M891.744 121H877.105V110.691C870.645 118.388 862.122 122.237 851.538 122.237C843.428 122.237 836.761 119.969 831.538 115.433C826.452 110.759 823.909 104.711 823.909 97.2886C823.909 89.8659 826.658 84.2301 832.156 80.3813C837.655 76.5325 845.215 74.6081 854.837 74.6081H875.868V71.7215C875.868 61.5497 870.163 56.4638 858.754 56.4638C851.607 56.4638 844.184 59.0755 836.486 64.2989L829.27 54.1958C838.754 46.7731 849.339 43.0618 861.022 43.0618C870.507 43.0618 877.998 45.4673 883.497 50.2783C888.995 54.9518 891.744 62.0308 891.744 71.5154V121ZM875.662 85.9484H857.517C845.833 85.9484 839.992 89.591 839.992 96.8762C839.992 100.588 841.435 103.474 844.321 105.536C847.208 107.46 851.263 108.423 856.486 108.423C861.847 108.423 866.383 106.979 870.095 104.093C873.806 101.069 875.662 97.1511 875.662 92.3401V85.9484Z" fill="#6B6B6B"/>
<path d="M930.53 88.0102V121H914.448V44.2989H930.53V59.5566C933.142 54.7456 936.647 50.8281 941.046 47.804C945.582 44.78 950.324 43.1992 955.273 43.0618L955.479 59.3504H954.654C946.819 59.3504 940.84 61.8934 936.716 66.9793C932.592 72.0652 930.53 79.0755 930.53 88.0102Z" fill="#6B6B6B"/>
<path d="M3.52224e-05 99.2857L79.4286 119.143L158.857 99.2857V119.143L79.4286 139L3.52224e-05 119.143V99.2857Z" fill="#6B6B6B"/>
<path d="M3.52224e-05 59.5714L79.4286 79.4286L158.857 59.5714V79.4286L79.4286 99.2857L3.52224e-05 79.4286V59.5714Z" fill="#6B6B6B"/>
<path d="M0 19.8571L79.4286 0L158.857 19.8571V39.7143L79.4286 59.5714L0 39.7143V19.8571Z" fill="#6B6B6B"/>
</svg>
