<svg width="1045" height="118" viewBox="0 0 1045 118" fill="none" xmlns="http://www.w3.org/2000/svg">
<path d="M76 1.39999H114L83.2 115.4H31L0 1.39999H38.2L56.6 90.6H57.6L76 1.39999Z" fill="#6B6B6B"/>
<path d="M166.663 118C150.663 118 138.663 114.267 130.663 106.8C122.796 99.2 118.863 87.2667 118.863 71C118.863 62.0667 119.662 54.2667 121.262 47.6C122.996 40.8 125.063 36.0667 127.463 33.4C130.529 29.9333 136.129 27.0667 144.262 24.8C152.529 22.5333 160.263 21.4 167.463 21.4C184.663 21.4 196.929 25.0667 204.263 32.4C211.596 39.7333 215.263 51.4667 215.263 67.6C215.263 84.9333 211.329 97.6667 203.463 105.8C195.596 113.933 183.329 118 166.663 118ZM167.262 94.6C172.462 94.6 175.862 92.8 177.462 89.2C179.062 85.4667 179.863 78.9333 179.863 69.6C179.863 63.0667 179.529 58.0667 178.863 54.6C178.196 51 176.929 48.4 175.062 46.8C173.329 45.0667 170.596 44.2 166.863 44.2C161.529 44.2 158.463 44.6667 157.663 45.6C156.596 46.5333 155.729 49.4667 155.062 54.4C154.396 59.3333 154.062 64.4667 154.062 69.8C154.062 78.8667 154.929 85.2667 156.663 89C158.529 92.7333 162.062 94.6 167.262 94.6Z" fill="#6B6B6B"/>
<path d="M285.317 21.4C287.051 21.4 288.851 21.6 290.717 22C292.717 22.4 294.184 22.8667 295.117 23.4C295.117 26.3333 294.784 31.2 294.117 38C293.451 44.6667 292.851 49.4 292.317 52.2C290.984 52.0667 288.517 52 284.917 52C276.517 52 269.051 52.4667 262.517 53.4V115.4H228.317V23.4H256.917L260.917 38.2H261.117C264.984 33.1333 269.117 29.0667 273.517 26C277.917 22.9333 281.851 21.4 285.317 21.4Z" fill="#6B6B6B"/>
<path d="M346.498 77.6C346.498 80 346.565 82.5333 346.698 85.2C346.832 87.7333 347.232 89.3333 347.898 90C348.832 90.9333 352.098 91.4 357.698 91.4L364.498 91.2C365.698 97.6 366.298 105 366.298 113.4C363.765 114.333 360.032 115.2 355.098 116C350.298 116.8 345.698 117.2 341.298 117.2C332.098 117.2 324.965 115.2 319.898 111.2C314.965 107.067 312.498 100.733 312.498 92.2V43H297.498V24.8L312.498 23.4L321.498 1.39999L346.498 0V23.4H367.698V43H346.498V77.6Z" fill="#6B6B6B"/>
<path d="M433.727 91.4C437.06 91.4 443.26 91.0667 452.327 90.4C453.527 90.4 455.727 90.2667 458.927 90L461.927 110.6C451.66 115.4 438.327 117.8 421.927 117.8C406.593 117.8 394.793 113.933 386.527 106.2C378.393 98.4667 374.327 86.8 374.327 71.2C374.327 63.2 375.327 55.4667 377.327 48C379.46 40.5333 381.86 35.3333 384.527 32.4C387.327 29.4667 392.527 26.9333 400.127 24.8C407.727 22.6667 415.26 21.6 422.727 21.6C434.727 21.6 443.727 23.7333 449.727 28C455.727 32.2667 459.66 38.2 461.527 45.8C463.393 53.2667 464.327 63.3333 464.327 76C455.26 76.5333 446.393 76.8 437.727 76.8H409.327C409.327 81.0667 410.193 84.2667 411.927 86.4C413.793 88.5333 416.393 89.9333 419.727 90.6C423.06 91.1333 427.727 91.4 433.727 91.4ZM411.327 45.4C410.527 45.8 409.927 47.5333 409.527 50.6C409.127 53.6667 408.86 57.1333 408.727 61H419.127C425.393 61 429.927 60.9333 432.727 60.8C432.727 54.4 431.793 49.8667 429.927 47.2C428.193 44.5333 425.127 43.2 420.727 43.2C417.127 43.2 413.993 43.9333 411.327 45.4Z" fill="#6B6B6B"/>
<path d="M493.164 68.4L470.164 23.4H503.364L519.964 59L536.764 23.4H569.764L546.964 68.4L571.964 115.4H538.564L519.964 77.4L501.364 115.4H467.964L493.164 68.4Z" fill="#6B6B6B"/>
<path d="M648.88 115.4H603.88L574.48 1.39999H612.88L628.08 85.2H629.08L645.28 1.39999H682.88L699.48 85.2H700.08L715.48 1.39999H752.28L722.88 115.4H678.08L664.48 42.6H663.28L648.88 115.4Z" fill="#6B6B6B"/>
<path d="M811.438 115.4L808.237 102.8C802.104 112.8 793.571 117.8 782.638 117.8C773.704 117.8 766.371 115.333 760.638 110.4C755.038 105.333 752.237 98.2667 752.237 89.2C752.237 83.6 753.837 78.7333 757.037 74.6C760.371 70.3333 764.904 67.3333 770.638 65.6C778.104 63.4667 789.637 62.2667 805.237 62C805.237 53.2 804.837 48.5333 804.037 48C803.371 47.4667 801.238 47.2 797.638 47.2C795.371 47.2 792.237 47.3333 788.237 47.6C781.837 47.8667 773.171 48.6 762.237 49.8C761.171 42.6 760.371 34.8667 759.838 26.6C766.904 25.1333 774.304 23.9333 782.037 23C789.771 21.9333 796.704 21.4 802.838 21.4C813.504 21.4 821.504 23.2 826.838 26.8C832.171 30.2667 835.637 34.8667 837.237 40.6C838.837 46.3333 839.571 53.6 839.438 62.4L839.237 91.8L839.838 115.4H811.438ZM794.237 95.4C797.704 95.4 801.371 94.7333 805.237 93.4V78.6H803.638C793.771 78.6 788.304 79.1333 787.237 80.2C786.571 80.8667 786.038 81.8667 785.638 83.2C785.371 84.5333 785.237 85.8 785.237 87C785.237 90.2 785.971 92.4 787.438 93.6C788.904 94.8 791.171 95.4 794.237 95.4Z" fill="#6B6B6B"/>
<path d="M914.08 23.4H949.88L921.88 115.4H874.48L846.48 23.4H882.28L897.28 94H899.28L914.08 23.4Z" fill="#6B6B6B"/>
<path d="M1013.61 91.4C1016.94 91.4 1023.14 91.0667 1032.21 90.4C1033.41 90.4 1035.61 90.2667 1038.81 90L1041.81 110.6C1031.54 115.4 1018.21 117.8 1001.81 117.8C986.476 117.8 974.676 113.933 966.409 106.2C958.276 98.4667 954.209 86.8 954.209 71.2C954.209 63.2 955.209 55.4667 957.209 48C959.343 40.5333 961.743 35.3333 964.409 32.4C967.209 29.4667 972.409 26.9333 980.009 24.8C987.609 22.6667 995.143 21.6 1002.61 21.6C1014.61 21.6 1023.61 23.7333 1029.61 28C1035.61 32.2667 1039.54 38.2 1041.41 45.8C1043.28 53.2667 1044.21 63.3333 1044.21 76C1035.14 76.5333 1026.28 76.8 1017.61 76.8H989.209C989.209 81.0667 990.076 84.2667 991.809 86.4C993.676 88.5333 996.276 89.9333 999.609 90.6C1002.94 91.1333 1007.61 91.4 1013.61 91.4ZM991.209 45.4C990.409 45.8 989.809 47.5333 989.409 50.6C989.009 53.6667 988.743 57.1333 988.609 61H999.009C1005.28 61 1009.81 60.9333 1012.61 60.8C1012.61 54.4 1011.68 49.8667 1009.81 47.2C1008.08 44.5333 1005.01 43.2 1000.61 43.2C997.009 43.2 993.876 43.9333 991.209 45.4Z" fill="#6B6B6B"/>
</svg>
