<svg width="512" height="512" viewBox="0 0 512 512" fill="none" xmlns="http://www.w3.org/2000/svg">
<path d="M402.25 257.812L381.695 153.492C381.261 151.434 380.034 149.629 378.278 148.468C376.523 147.308 374.382 146.885 372.317 147.292C370.253 147.699 368.432 148.902 367.248 150.642C366.064 152.381 365.613 154.517 365.992 156.587L385.367 254.891C374.484 259.664 344.805 270.207 289.492 273.371C266.447 274.578 243.352 274.525 220.313 273.211C165.391 270.008 136.961 259.688 126.617 255L163.63 67.4394C178.244 71.6046 193.29 74.0656 208.469 74.7734C209.516 74.8586 210.569 74.7367 211.569 74.4147C212.569 74.0927 213.496 73.5769 214.296 72.8968C215.097 72.2167 215.755 71.3856 216.235 70.4509C216.714 69.5162 217.005 68.4962 217.09 67.4492C217.175 66.4023 217.053 65.3488 216.731 64.3489C216.409 63.349 215.893 62.4223 215.213 61.6218C214.533 60.8213 213.702 60.1625 212.767 59.6832C211.833 59.2039 210.813 58.9133 209.766 58.8282C198.423 58.0488 187.146 56.5128 176.008 54.2305C202.403 49.5375 229.196 47.4506 256 48C282.815 47.448 309.618 49.5375 336.023 54.2383C304.715 59.3792 272.975 61.416 241.266 60.319C240.214 60.3007 239.169 60.4898 238.191 60.8756C237.213 61.2614 236.32 61.8363 235.564 62.5674C234.808 63.2986 234.203 64.1716 233.785 65.1365C233.366 66.1015 233.142 67.1394 233.125 68.191C233.732 79.8738 248.003 75.6367 256 76.4805C289.968 76.4805 328.436 74.5411 348.286 66.9947L359.672 124.59C360.11 126.646 361.339 128.448 363.094 129.606C364.849 130.764 366.989 131.184 369.052 130.777C371.115 130.37 372.934 129.167 374.118 127.429C375.301 125.69 375.752 123.556 375.375 121.488L361.773 52.6875C361.371 51.3993 360.741 50.1931 359.916 49.1254C350.059 35.1543 299.361 32 256 32C212.65 32 161.967 35.152 152.092 49.1142C151.259 50.1843 150.627 51.3962 150.227 52.6914L109.75 257.812C109.441 259.381 109.609 261.007 110.233 262.479C110.856 263.951 111.908 265.202 113.25 266.07C114.394 266.815 141.91 284.065 215.516 288.911C218.706 294.257 223.2 306.378 222.883 332.156C222.891 332.613 223.086 378.168 202.156 401.176C201.957 401.398 201.769 401.63 201.594 401.871C201.406 402.133 182.469 428.051 162.656 434.684C160.381 435.496 158.377 436.927 156.87 438.816C155.364 440.705 154.415 442.977 154.13 445.377C153.845 447.776 154.236 450.207 155.258 452.397C156.28 454.586 157.892 456.447 159.915 457.769C176.556 468.199 195.302 474.808 214.805 477.121C216.815 477.12 218.751 476.361 220.227 474.997C221.703 473.633 222.612 471.763 222.773 469.759C222.933 467.756 222.334 465.765 221.093 464.183C219.853 462.601 218.062 461.544 216.078 461.223C201.26 459.157 186.922 454.49 173.727 447.437C189.668 438.557 203.505 426.338 214.289 411.617C239.102 383.945 238.906 334.117 238.883 332.176C239.049 273.058 215.569 294.038 276.444 289.898C271.826 303.438 269.696 317.702 270.156 332C270.133 334.117 269.938 383.949 294.672 411.613C305.446 426.282 319.234 438.477 335.109 447.379C321.898 454.273 297.781 461.781 254.477 464C247.892 463.775 239.578 462.759 238.813 471.325C238.49 480.308 248.061 480.368 254.883 479.987C290.914 478.377 357.351 468.245 354.938 445.407C354.658 442.972 353.69 440.667 352.147 438.762C350.604 436.857 348.55 435.432 346.226 434.652C326.562 428.055 307.546 402.121 307.359 401.859C307.187 401.629 307 401.398 306.812 401.187C286.023 378.254 286.148 332.609 286.156 332.058C285.162 317.247 288.027 302.432 294.471 289.059C368.015 284.269 397.336 266.939 398.57 266.187C399.967 265.335 401.068 264.075 401.726 262.578C402.384 261.08 402.567 259.417 402.25 257.812Z" fill="#F1D1AF"/>
</svg>
