<svg width="528" height="528" viewBox="0 0 528 528" fill="none" xmlns="http://www.w3.org/2000/svg">
<path d="M486.75 141.156C487.833 141.157 488.906 140.944 489.907 140.529C490.909 140.115 491.818 139.507 492.584 138.741C493.35 137.975 493.958 137.065 494.373 136.064C494.787 135.063 495 133.99 495 132.906V96.6918C495 96.5252 494.915 96.3866 494.905 96.2221C494.608 78.363 476.519 63.8973 454.258 63.8973C445.969 63.4188 437.736 65.5223 430.693 69.9182C423.65 74.314 418.144 80.7858 414.933 88.4418H113.039C101.494 52.5416 34.0578 57.5115 33 96.6566V436.493C33.9853 472.986 113.744 473.008 114.509 436.409V425.451H357.143C359.311 425.422 361.382 424.54 362.905 422.996C364.428 421.452 365.283 419.37 365.283 417.201C365.283 415.032 364.428 412.95 362.905 411.406C361.382 409.862 359.311 408.98 357.143 408.951H114.509V224.402C114.475 222.236 113.591 220.17 112.048 218.65C110.504 217.13 108.425 216.279 106.259 216.279C104.093 216.279 102.013 217.131 100.47 218.651C98.9264 220.17 98.0425 222.236 98.009 224.402V414.315C90.3992 410.824 82.1252 409.019 73.753 409.021C65.3808 409.023 57.1078 410.834 49.5 414.329V96.6556C49.5 87.8416 60.6262 80.3973 73.7908 80.3973C86.9661 80.4066 98.0091 87.8594 98.009 96.7357V191.402C98.0381 193.571 98.9201 195.641 100.464 197.164C102.008 198.688 104.09 199.542 106.259 199.542C108.428 199.542 110.51 198.688 112.054 197.164C113.598 195.641 114.48 193.571 114.509 191.402V104.942H413.475V408.951H390.143C387.976 408.983 385.908 409.867 384.387 411.41C382.867 412.954 382.014 415.034 382.014 417.201C382.014 419.368 382.867 421.448 384.387 422.992C385.908 424.536 387.976 425.419 390.143 425.451H413.474V436.493C414.28 472.852 494.111 473.055 495 436.508V165.906C494.971 163.738 494.089 161.667 492.545 160.144C491.001 158.621 488.919 157.766 486.75 157.766C484.581 157.766 482.499 158.621 480.955 160.144C479.411 161.667 478.529 163.738 478.5 165.906V414.324C470.891 410.83 462.618 409.022 454.246 409.021C445.874 409.02 437.6 410.828 429.991 414.32L429.979 96.6312C430.936 75.4606 477.405 75.1588 478.46 96.6559C478.671 96.7389 478.392 132.767 478.5 132.906C478.5 133.99 478.713 135.063 479.128 136.064C479.542 137.065 480.15 137.975 480.916 138.741C481.682 139.507 482.591 140.115 483.593 140.529C484.594 140.944 485.667 141.157 486.75 141.156ZM73.7666 425.443C88.309 425.46 97.9545 432.031 98.009 436.509C98.0247 440.971 88.3278 447.59 73.7666 447.603C59.1841 447.603 49.5081 440.932 49.5081 436.521C49.5081 432.11 59.1841 425.443 73.7666 425.443ZM454.241 425.443C468.824 425.443 478.5 432.11 478.5 436.521C478.5 440.932 468.824 447.603 454.241 447.603C439.659 447.603 429.983 440.932 429.983 436.521C429.983 432.11 439.659 425.443 454.241 425.443Z" fill="#F1D1AF"/>
<path d="M227.664 350.129C220.44 347.329 213.942 342.932 208.656 337.267C203.37 331.603 199.432 324.816 197.138 317.415C196.815 316.382 196.291 315.422 195.597 314.591C194.903 313.759 194.051 313.073 193.092 312.57C192.132 312.068 191.083 311.76 190.005 311.663C188.926 311.566 187.839 311.682 186.805 312.005C185.771 312.329 184.812 312.852 183.98 313.547C183.149 314.241 182.463 315.092 181.96 316.051C181.458 317.011 181.149 318.06 181.052 319.139C180.955 320.217 181.072 321.304 181.395 322.338C199.85 382.844 286.421 386.721 309.697 326.893C313.256 317.634 314.751 307.71 314.078 297.814C313.404 287.918 310.578 278.288 305.798 269.597C301.017 260.906 294.396 253.364 286.398 247.497C278.4 241.63 269.218 237.58 259.493 235.629L246.888 165.024C246.618 163.608 245.984 162.286 245.048 161.19C244.113 160.093 242.908 159.258 241.552 158.768C240.196 158.278 238.736 158.149 237.315 158.394C235.895 158.639 234.562 159.25 233.449 160.166L144.286 235.31C143.196 236.253 142.369 237.463 141.887 238.821C141.406 240.18 141.286 241.64 141.539 243.059C141.793 244.478 142.411 245.807 143.334 246.914C144.256 248.022 145.451 248.871 146.8 249.377L256.459 289.028C257.821 289.501 259.282 289.612 260.699 289.35C262.116 289.088 263.441 288.462 264.543 287.533C265.645 286.604 266.486 285.404 266.984 284.052C267.482 282.7 267.62 281.241 267.384 279.819L262.68 253.474C263.482 253.742 264.304 253.923 265.095 254.231C327.678 281.105 292.043 372.667 227.664 350.129ZM165.846 238.718L233.159 181.991L242.527 234.476C227.247 235.386 212.71 241.384 201.235 251.515L165.846 238.718ZM219.786 258.223C227.532 253.528 236.377 250.953 245.433 250.756L248.628 268.653L219.786 258.223Z" fill="#F1D1AF"/>
<path d="M384.938 170.813C383.992 168.856 382.666 167.106 381.038 165.665C379.411 164.224 377.513 163.12 375.456 162.418L323.74 144.588C319.589 143.179 315.05 143.466 311.109 145.386C307.169 147.306 304.145 150.704 302.696 154.841L284.867 206.564C283.444 210.714 283.725 215.259 285.647 219.202C287.57 223.145 290.977 226.165 295.123 227.6L346.838 245.425C350.989 246.844 355.532 246.562 359.475 244.641C363.418 242.72 366.441 239.316 367.882 235.173L385.704 183.462C386.42 181.408 386.722 179.232 386.59 177.06C386.459 174.889 385.897 172.765 384.938 170.813ZM352.236 229.832L300.465 211.938L318.359 160.186L370.107 178.08L352.236 229.832Z" fill="#F1D1AF"/>
</svg>
