<svg width="528" height="528" viewBox="0 0 528 528" fill="none" xmlns="http://www.w3.org/2000/svg">
<path d="M41.246 144.857C42.3289 144.858 43.4013 144.645 44.4018 144.23C45.4024 143.816 46.3115 143.209 47.0772 142.443C47.8429 141.677 48.4503 140.768 48.8646 139.768C49.2789 138.767 49.492 137.695 49.4918 136.612V124.082C49.2265 119.879 50.5979 115.737 53.3186 112.524C56.0392 109.31 59.8981 107.274 64.0866 106.842H319.13C321.31 106.832 323.398 105.959 324.937 104.413C326.475 102.868 327.339 100.776 327.339 98.5957C327.339 96.4152 326.475 94.3234 324.937 92.778C323.398 91.2327 321.31 90.3596 319.13 90.3499H64.0866C55.4996 90.7245 47.4098 94.4826 41.5849 100.803C35.7601 107.124 32.6737 115.493 33 124.082V136.612C32.9998 137.695 33.2129 138.767 33.6273 139.768C34.0416 140.768 34.649 141.677 35.4147 142.443C36.1805 143.209 37.0896 143.816 38.0902 144.23C39.0907 144.645 40.1631 144.858 41.246 144.857Z" fill="#F1D1AF"/>
<path d="M421.871 216.017C420.788 216.017 419.716 216.23 418.716 216.644C417.715 217.059 416.806 217.666 416.04 218.432C415.274 219.198 414.667 220.107 414.253 221.107C413.838 222.108 413.625 223.18 413.625 224.263V325.773C413.94 329.964 412.594 334.111 409.879 337.32C407.164 340.528 403.297 342.541 399.111 342.925H64.0866C59.8894 342.554 56.0064 340.547 53.2757 337.338C50.5451 334.129 49.1858 329.975 49.4915 325.773V318.952H393.68C395.847 318.923 397.917 318.042 399.439 316.498C400.962 314.955 401.815 312.874 401.815 310.706C401.815 308.538 400.962 306.458 399.439 304.914C397.916 303.371 395.847 302.49 393.679 302.461H346.576C341.905 288.419 334.499 275.442 324.787 264.278C315.074 253.113 303.247 243.983 289.988 237.413C288.391 236.626 286.584 236.379 284.835 236.707C283.086 237.035 281.491 237.921 280.288 239.232C256.712 265.475 223.453 265.449 199.779 239.208C198.568 237.906 196.97 237.03 195.221 236.708C193.473 236.386 191.667 236.636 190.072 237.421C176.812 243.986 164.985 253.115 155.275 264.278C145.564 275.442 138.162 288.419 133.496 302.461H49.4918V169.595C49.4555 167.432 48.5708 165.37 47.0284 163.853C45.4859 162.336 43.4093 161.486 41.246 161.486C39.0828 161.486 37.0062 162.336 35.4639 163.853C33.9215 165.37 33.037 167.432 33.0009 169.595L33 325.773C32.6843 334.35 35.7769 342.704 41.602 349.008C47.4271 355.313 55.5109 359.054 64.0866 359.416H177.1C177.304 369.377 175.609 379.286 172.106 388.613C121.168 396.33 90.8738 413.106 90.8738 433.886C91.404 499.932 371.769 499.941 372.297 433.885C372.297 405.718 321.44 393.562 294.875 389.135C291.481 379.604 289.858 369.532 290.088 359.416H399.112C407.676 359.043 415.745 355.295 421.555 348.991C427.365 342.687 430.444 334.34 430.118 325.773V224.263C430.118 223.18 429.905 222.108 429.491 221.107C429.077 220.106 428.469 219.197 427.703 218.432C426.937 217.666 426.028 217.058 425.028 216.644C424.027 216.23 422.954 216.017 421.871 216.017ZM192.19 254.975C198.388 261.414 205.822 266.536 214.046 270.035C222.271 273.533 231.116 275.337 240.054 275.337C248.992 275.337 257.837 273.533 266.062 270.035C274.286 266.536 281.72 261.414 287.918 254.975C306.6 265.736 321.128 282.458 329.172 302.461H150.946C158.943 282.432 173.478 265.697 192.19 254.975ZM355.804 433.886C355.804 447.422 307.413 467.086 231.583 467.086C155.757 467.086 107.365 447.422 107.365 433.886C107.365 426.696 124.331 414.625 161.544 407.173C157.566 412.251 152.932 416.779 147.764 420.639C146.674 421.472 145.808 422.563 145.242 423.812C144.676 425.062 144.429 426.433 144.522 427.802C144.616 429.17 145.047 430.495 145.777 431.656C146.507 432.818 147.514 433.78 148.707 434.457C181.616 453.245 255.444 464.134 314.846 434.745C316.129 434.136 317.236 433.209 318.06 432.051C318.883 430.893 319.397 429.543 319.551 428.13C319.705 426.718 319.495 425.289 318.941 423.98C318.386 422.672 317.506 421.527 316.384 420.655C311.854 416.916 307.867 412.564 304.539 407.724C341.552 415.571 355.804 427.454 355.804 433.886ZM296.756 424.448C255.315 440.357 209.482 440.534 167.92 424.947C176.361 416.295 182.98 406.038 187.386 394.782C191.792 383.525 193.894 371.499 193.569 359.416H273.736C273.076 383.198 281.281 406.377 296.756 424.448Z" fill="#F1D1AF"/>
<path d="M224.244 330.967C224.273 332.892 225.057 334.728 226.428 336.079C227.799 337.43 229.647 338.188 231.572 338.188C233.497 338.188 235.344 337.43 236.715 336.079C238.086 334.728 238.87 332.891 238.898 330.967C238.87 329.042 238.086 327.206 236.715 325.855C235.344 324.504 233.496 323.746 231.571 323.746C229.646 323.746 227.799 324.504 226.428 325.855C225.057 327.206 224.272 329.043 224.244 330.967Z" fill="#F1D1AF"/>
<path d="M190.145 173.339C190.145 200.065 211.589 241.278 240.082 241.278C268.58 241.278 290.024 200.065 290.024 173.339C290.007 160.105 284.738 147.42 275.374 138.068C266.01 128.716 253.318 123.464 240.084 123.464C226.85 123.464 214.158 128.716 204.794 138.068C195.431 147.42 190.162 160.105 190.145 173.339ZM240.082 224.786C225.476 224.786 211.658 201.777 207.76 182.972C213.566 185.358 219.794 186.549 226.071 186.472C240.768 186.611 240.989 181.834 253.8 181.584C259.975 182.028 266.053 183.367 271.843 185.558C267.273 203.818 254.024 224.786 240.082 224.786ZM273.082 168.885C266.969 166.356 260.415 165.067 253.8 165.093C239.104 164.955 238.885 169.732 226.071 169.981C219.738 169.458 213.502 168.094 207.53 165.923C209.244 158.285 213.592 151.494 219.812 146.742C226.032 141.989 233.727 139.578 241.547 139.931C249.367 140.285 256.813 143.38 262.579 148.674C268.345 153.968 272.063 161.123 273.082 168.885Z" fill="#F1D1AF"/>
<path d="M480.168 76.6201C478.869 74.8934 476.945 73.7452 474.809 73.4226C472.673 73.1 470.495 73.6286 468.745 74.8949C466.994 76.1612 465.811 78.0639 465.449 80.1938C465.087 82.3237 465.575 84.5106 466.809 86.2841C504.998 140.187 441.916 207.567 385.715 173.016C384.631 172.327 383.401 171.902 382.123 171.775C380.844 171.647 379.554 171.822 378.356 172.284C372.306 174.55 366.051 176.225 359.678 177.285C362.067 173.145 364.102 168.81 365.762 164.328C366.789 162.778 367.385 160.983 367.491 159.127C367.596 157.271 367.207 155.42 366.362 153.763C334.009 102.438 390.522 40.3355 444.657 67.4657C446.614 68.4389 448.876 68.5972 450.949 67.9058C453.021 67.2143 454.736 65.7296 455.716 63.7768C462.197 48.4405 427.485 44.7771 417.665 44.5864C404.308 44.6797 391.202 48.2303 379.625 54.8924C368.047 61.5545 358.392 71.1011 351.599 82.6026C344.807 94.1042 341.108 107.169 340.864 120.524C340.62 133.879 343.838 147.07 350.206 158.812C346.077 169.152 342.591 177.253 328.29 178.967C326.291 179.244 324.463 180.242 323.15 181.774C321.836 183.306 321.129 185.265 321.161 187.283C321.192 189.3 321.961 191.236 323.322 192.726C324.682 194.216 326.541 195.156 328.547 195.37C346.083 196.501 363.676 194.36 380.429 189.057C452.175 228.337 527.642 143.238 480.168 76.6201Z" fill="#F1D1AF"/>
<path d="M446.971 95.3262H388.397C386.228 95.3537 384.158 96.2346 382.634 97.778C381.11 99.3215 380.255 101.403 380.255 103.572C380.255 105.741 381.11 107.823 382.634 109.366C384.158 110.91 386.229 111.791 388.398 111.818H446.971C449.14 111.79 451.21 110.91 452.734 109.366C454.258 107.823 455.113 105.741 455.113 103.572C455.113 101.403 454.258 99.3213 452.734 97.7779C451.21 96.2345 449.14 95.3536 446.971 95.3262Z" fill="#F1D1AF"/>
<path d="M388.397 131.337C386.228 131.365 384.158 132.246 382.634 133.789C381.11 135.333 380.255 137.414 380.255 139.584C380.255 141.753 381.11 143.834 382.634 145.378C384.158 146.921 386.229 147.802 388.398 147.829H446.971C449.14 147.802 451.21 146.921 452.734 145.377C454.258 143.834 455.113 141.752 455.113 139.583C455.113 137.414 454.258 135.333 452.734 133.789C451.21 132.246 449.14 131.365 446.971 131.337H388.397Z" fill="#F1D1AF"/>
</svg>
