<svg width="528" height="528" viewBox="0 0 528 528" fill="none" xmlns="http://www.w3.org/2000/svg">
<path d="M194.455 99.4108C201.9 99.0252 213.623 103.422 215.177 92.9086C215.309 91.8337 215.228 90.7432 214.939 89.6995C214.65 88.6557 214.158 87.6792 213.492 86.8256C212.825 85.972 211.997 85.2581 211.054 84.7246C210.112 84.1911 209.073 83.8486 207.998 83.7165C167.384 77.6019 118.776 99.7779 120.206 130.764C122.468 194.259 266.462 194.239 268.705 130.762C268.335 123.727 266.156 116.906 262.377 110.96C258.599 105.014 253.35 100.144 247.137 96.8206C245.291 95.6827 243.07 95.3176 240.957 95.8045C238.843 96.2914 237.006 97.591 235.843 99.4221C234.68 101.253 234.285 103.469 234.743 105.589C235.202 107.709 236.476 109.563 238.292 110.751C242.052 112.718 245.282 115.565 247.705 119.049C250.127 122.534 251.671 126.553 252.205 130.763C249.084 172.21 139.814 172.201 136.705 130.762C136.705 113.767 163.155 99.4108 194.455 99.4108Z" fill="#F1D1AF"/>
<path d="M434.366 212.108C434.33 212.081 194.48 212.141 194.447 212.095C7.63854 207.592 7.5194 54.0351 194.448 49.5C299.96 47.7462 388.412 123.819 297.911 185.644C296.103 186.828 294.831 188.675 294.37 190.787C293.909 192.899 294.295 195.107 295.446 196.937C296.596 198.768 298.419 200.073 300.522 200.573C302.626 201.073 304.841 200.728 306.692 199.611C335.784 181.315 351.801 156.875 351.801 130.796C344.037 1.32301 44.927 1.21196 37.0925 130.797V322.318C37.2369 365.46 80.3292 402.109 145.366 415.16V461.505C145.375 470.384 148.907 478.898 155.186 485.177C161.464 491.457 169.977 494.989 178.857 495H359.616C361.785 494.971 363.855 494.089 365.379 492.545C366.902 491.001 367.756 488.919 367.756 486.75C367.756 484.581 366.902 482.499 365.379 480.955C363.855 479.411 361.785 478.529 359.616 478.5H178.857C174.352 478.494 170.033 476.702 166.848 473.516C163.662 470.329 161.871 466.01 161.866 461.505V386.513C161.866 384.325 160.997 382.227 159.45 380.68C157.902 379.133 155.804 378.263 153.616 378.263C151.428 378.263 149.329 379.133 147.782 380.68C146.235 382.227 145.366 384.325 145.366 386.513V398.356C90.8014 386.492 53.6042 356.037 53.5929 322.19V174.127C79.3531 206.336 132.703 228.577 194.386 228.593C194.397 228.563 434.33 228.644 434.366 228.607C486.756 230.116 487.623 307.184 434.365 308.633L178.858 308.634C169.978 308.644 161.465 312.177 155.186 318.456C148.907 324.736 145.376 333.249 145.366 342.129V353.513C145.366 355.701 146.235 357.8 147.783 359.347C149.33 360.894 151.428 361.763 153.616 361.763C155.804 361.763 157.903 360.894 159.45 359.347C160.997 357.8 161.866 355.701 161.866 353.513V342.129C161.871 337.624 163.662 333.304 166.848 330.118C170.033 326.932 174.352 325.14 178.858 325.134H434.366C441.798 325.159 449.16 323.71 456.028 320.87C462.896 318.03 469.132 313.856 474.375 308.589V400.371C474.349 410.933 472.189 421.381 468.025 431.087C463.86 440.793 457.778 449.558 450.142 456.855C442.506 464.152 433.474 469.831 423.589 473.55C413.703 477.27 403.168 478.953 392.616 478.5C390.45 478.534 388.384 479.418 386.865 480.961C385.345 482.505 384.493 484.584 384.493 486.75C384.493 488.916 385.345 490.996 386.865 492.539C388.385 494.083 390.451 494.967 392.616 495C405.336 495.453 418.018 493.342 429.905 488.793C441.792 484.243 452.643 477.349 461.811 468.52C470.978 459.69 478.276 449.107 483.269 437.399C488.262 425.691 490.849 413.099 490.875 400.371V268.621C490.859 253.638 484.901 239.273 474.307 228.678C463.713 218.084 449.348 212.124 434.366 212.108Z" fill="#F1D1AF"/>
<path d="M186.197 411.151V446.572C186.228 448.74 187.11 450.808 188.654 452.33C190.198 453.853 192.279 454.706 194.447 454.706C196.615 454.706 198.696 453.853 200.24 452.33C201.784 450.808 202.666 448.74 202.697 446.572V411.151C202.666 408.983 201.784 406.914 200.24 405.392C198.696 403.87 196.615 403.017 194.447 403.017C192.279 403.017 190.198 403.87 188.654 405.392C187.11 406.914 186.228 408.983 186.197 411.151Z" fill="#F1D1AF"/>
<path d="M231.612 430.003V446.572C231.643 448.74 232.526 450.808 234.069 452.33C235.613 453.853 237.694 454.706 239.862 454.706C242.03 454.706 244.111 453.853 245.655 452.33C247.199 450.808 248.082 448.74 248.112 446.572V430.003C248.082 427.835 247.199 425.767 245.655 424.245C244.111 422.722 242.03 421.869 239.862 421.869C237.694 421.869 235.613 422.722 234.069 424.245C232.526 425.767 231.643 427.835 231.612 430.003Z" fill="#F1D1AF"/>
<path d="M277.028 411.151V446.572C277.058 448.74 277.941 450.808 279.485 452.33C281.029 453.853 283.11 454.706 285.278 454.706C287.446 454.706 289.527 453.853 291.07 452.33C292.614 450.808 293.497 448.74 293.528 446.572V411.151C293.497 408.983 292.614 406.914 291.07 405.392C289.527 403.87 287.446 403.017 285.278 403.017C283.11 403.017 281.029 403.87 279.485 405.392C277.941 406.914 277.058 408.983 277.028 411.151Z" fill="#F1D1AF"/>
<path d="M322.443 430.003V446.572C322.474 448.74 323.356 450.808 324.9 452.33C326.444 453.853 328.525 454.706 330.693 454.706C332.861 454.706 334.942 453.853 336.486 452.33C338.03 450.808 338.912 448.74 338.943 446.572V430.003C338.912 427.835 338.03 425.767 336.486 424.245C334.942 422.722 332.861 421.869 330.693 421.869C328.525 421.869 326.444 422.722 324.9 424.245C323.356 425.767 322.474 427.835 322.443 430.003Z" fill="#F1D1AF"/>
<path d="M384.366 411.151C384.336 408.983 383.453 406.914 381.909 405.392C380.365 403.87 378.284 403.017 376.116 403.017C373.948 403.017 371.867 403.87 370.323 405.392C368.78 406.914 367.897 408.983 367.866 411.151V446.571C367.866 448.759 368.735 450.858 370.283 452.405C371.83 453.952 373.928 454.821 376.116 454.821C378.304 454.821 380.403 453.952 381.95 452.405C383.497 450.858 384.366 448.759 384.366 446.571V411.151Z" fill="#F1D1AF"/>
<path d="M429.781 446.572V430.003C429.751 427.835 428.868 425.767 427.324 424.244C425.78 422.722 423.699 421.869 421.531 421.869C419.363 421.869 417.282 422.723 415.739 424.245C414.195 425.767 413.312 427.836 413.281 430.004V446.572C413.312 448.739 414.195 450.808 415.739 452.33C417.283 453.852 419.363 454.706 421.531 454.706C423.7 454.706 425.78 453.852 427.324 452.33C428.868 450.808 429.751 448.739 429.781 446.572Z" fill="#F1D1AF"/>
</svg>
